<?xml version="1.0" encoding="UTF-8"?>
<svg xmlns="http://www.w3.org/2000/svg" xmlns:xlink="http://www.w3.org/1999/xlink" id="Capa_1" data-name="Capa 1" viewBox="0 0 126.12 86.41"><defs><style>.cls-1{fill:none;clip-rule:evenodd;}.cls-2{fill:#fff;}.cls-3,.cls-9{fill:#df6518;}.cls-4{fill:#b8babc;}.cls-10,.cls-4,.cls-5,.cls-8,.cls-9{fill-rule:evenodd;}.cls-12,.cls-5{fill:#262324;}.cls-6{clip-path:url(#clip-path);}.cls-7{fill:url(#linear-gradient);}.cls-10,.cls-11{fill:#e4e4e5;}.cls-13{fill:#7f8081;}.cls-14{fill:#a4a5a8;}</style><clipPath id="clip-path" transform="translate(-5.29 -7.66)"><path class="cls-1" d="M82.1,48.76l-.16.16a19.21,19.21,0,0,1-27.17,0l-.16-.16.39-.22.08.08a18.79,18.79,0,0,0,26.57,0l.08-.08.39.22M57.35,45.13c0,.18-.07.35-.11.51l.4.41a15.16,15.16,0,0,0,21.44,0l.4-.41c0-.17-.08-.34-.11-.51-.19.21-.39.42-.59.62a14.73,14.73,0,0,1-20.83,0C57.74,45.55,57.54,45.35,57.35,45.13ZM33.29,29.21c-.76-.65-4-1.29-5.05-1.43-5.58-.73-11.15.09-15-.43.1.51,4.11,1.65,4.81,1.83A45.5,45.5,0,0,0,28,30.44c.81,0,4.5.22,4.94.08-1.42-.93-12.54-1.67-12.94-1.94.25-.07,5.94.26,6.61.33S32.95,29.33,33.29,29.21Zm2.46,3.24a37.07,37.07,0,0,0-5.39-.84c-1.74-.21-3.62-.25-5.32-.29-1.49,0-10,.16-10.68.56.92.74,4.51,1.47,5.87,1.75a45.53,45.53,0,0,0,5.89.68c1.15,0,1.93.09,2.95.16l5.9.22a13.88,13.88,0,0,0,3,0c-2.44-1.63-15.75-1.72-16.74-2.2a7.21,7.21,0,0,1,1.9,0C24.82,32.58,35.15,32.64,35.76,32.46Zm3,3.82c-1.62-1.43-18.32-.42-18.54-.29,1.72,1.38,7.84,1.9,10.06,1.93,1.45,0,9.29,0,10.09-.37-.9-.76-8.19-.81-9.91-.79-.69,0-5.39,0-5.87-.16.34-.2,9.47-.25,10.7-.24C35.9,36.37,38.48,36.36,38.75,36.28Zm14.62,5.37h0l.64-.08a3.93,3.93,0,0,0,.14-.38A3,3,0,0,0,53.37,41.65Zm2,.75.17-.06c0-.05,0-.11,0-.16l-.15.19Zm-3.83-1.45h.22l-.36.57a1.42,1.42,0,0,0,.06-.22Zm-2.07,1,0-.09.56-.39Zm1.17,2.7-.11-.21c.4-.4.78-.82,1.17-1.23.14-.15.38-.41.67-.69l-.28.36C51.63,43.49,51.16,44.09,50.65,44.65ZM51.43,46h0l.08-.11Zm.46.7q-.23-.33-.44-.67l.93-.23c.3-.07.71-.58.9-.8l.12-.14A10.49,10.49,0,0,1,51.89,46.71Zm51.52-17.5c.75-.65,4-1.29,5.05-1.43,5.58-.73,11.15.09,15-.43-.1.51-4.11,1.65-4.81,1.83a45.51,45.51,0,0,1-9.91,1.25c-.81,0-4.5.22-4.93.08,1.42-.93,12.54-1.67,12.94-1.94-.25-.07-5.94.26-6.61.33S103.76,29.33,103.41,29.21Zm-2.46,3.24a37.11,37.11,0,0,1,5.39-.84c1.74-.21,3.62-.25,5.32-.29,1.49,0,10,.16,10.68.56-.92.74-4.52,1.47-5.87,1.75a45.55,45.55,0,0,1-5.88.68c-1.15,0-1.93.09-2.95.16l-5.9.22a13.89,13.89,0,0,1-3,0c2.44-1.63,15.75-1.72,16.74-2.2a7.21,7.21,0,0,0-1.9,0C111.89,32.58,101.55,32.64,100.95,32.46Zm-3,3.82c1.63-1.43,18.32-.42,18.54-.29-1.72,1.38-7.84,1.9-10.06,1.93-1.45,0-9.29,0-10.09-.37.9-.76,8.19-.81,9.91-.79.69,0,5.39,0,5.87-.16-.34-.2-9.47-.25-10.7-.24C100.81,36.37,98.22,36.36,98,36.28ZM83.34,41.65h0l-.64-.08a4,4,0,0,1-.14-.38A3,3,0,0,1,83.34,41.65Zm-2,.75-.17-.06c0-.05,0-.11,0-.16l.15.19Zm3.83-1.45h-.22l.36.57a1.29,1.29,0,0,1-.06-.22Zm2.07,1,0-.09-.56-.39Zm-1.17,2.7.11-.21c-.4-.4-.78-.82-1.17-1.23-.14-.15-.38-.41-.67-.69l.28.36C85.08,43.49,85.54,44.09,86.06,44.65ZM85.28,46h0l-.08-.11Zm-.46.7.44-.67-.93-.23c-.3-.07-.71-.58-.9-.8l-.12-.14A10.45,10.45,0,0,0,84.82,46.71ZM68.37,55.37a19.89,19.89,0,0,0,14.91-6.7c-2.79-1.1-3.2-2.55-3.42-4,.15.28.3.59.4.77a6.86,6.86,0,0,0,1.1,1.44c.57.57,2.22,1.71,3,1.5a3.26,3.26,0,0,0-.28-.93,4.37,4.37,0,0,0,2.26,1.25,3.15,3.15,0,0,0,2.28-.33l-.52-.59c.63,0,.91.52,2.33.4a3.88,3.88,0,0,0,2.32-1.08l-1.88-1.37c1.81.18,3,1.18,5.46-1.48-.43-.38-.6-.21-1-.53a5.37,5.37,0,0,0,2.29-.35c1.3-.53,1.31-1.1,2.32-2,1,0,2,0,2.95,0a22.77,22.77,0,0,0,7.32-1.1l1.4-.62a13,13,0,0,0,1.17-1c.43-.45.5-.78,1-.88A12.07,12.07,0,0,0,120.11,35c-.72-.32-1.72.11-2.52-.16.67-.37,6.87-.54,9.77-4.37-.43-.23-7.39.15-8.16,0a9.31,9.31,0,0,1,1.56-.38c.55-.15.93-.22,1.5-.39,2.66-.81,6-2.25,7.35-4.91.2-.4.66-1.11.47-1.53-.67.16-1.15.52-1.86.73a31.31,31.31,0,0,1-5.58,1.36c-5.59.75-12.74,1.08-18.54,1.27-1.18,0-2.49,0-3.72.11s-4.38,0-5.5,0a18.11,18.11,0,0,1-2.81,0,4.84,4.84,0,0,1-2.84-1.13,15.05,15.05,0,0,0-4.17,2.7,12.9,12.9,0,0,0-2.44,3.3c-.26.48-.47.75-.34,1.11,1.22-1.24,2.75-2.78,4.12-2.28,1.69.62,0,3.21-.93,4.16-1.12,1.14-2,1.6-3.12,1.28a15.17,15.17,0,0,1-.29,2.13c3.19.74,6.49-4,6.34-6.83-.11-1.92-1.74-1.68-2.93-1.38.24-.65,3.49-1.48,4.25-1.6a85.58,85.58,0,0,1,8.91-.48c.83,0,4-.25,4.47-.11-.12.4-.74.56-1.06.73a12.43,12.43,0,0,1-3.72,1.07,24.94,24.94,0,0,1-5,.19c1-.9,2.86-.68,3.61-1.08-.73-.22-2.3.08-3.29-.06-.44-.06-.63-.18-1.08-.26-.1.43.24.55,0,1.15s-.83.63-1,.93c.57.17,8.12-.71,9.67.42-.94,1-3.24,1.45-4.24,1.66-.85.18-3.78.45-4.34.15,1.16-1,2.74-.7,3.75-1.24-1.21-.37-2.67.32-4.22-.4-.34.92.61.78-.85,2a4.44,4.44,0,0,0,1.78,0c1.52,0,3.7-.13,5,.66-1.12,1.09-4.45,2-6,1.91-.5,0-.05.13-.49-.15,1.2-1.27,2-.81,3-1.32a16.58,16.58,0,0,0-2.32-.14A2.19,2.19,0,0,1,92,33.7l-.46-.07c-.08.42.13.77-.2,1.24s-.81.5-1.23.76c.77.31,4.27,0,5.54.93a8.56,8.56,0,0,1-3,1.45c-.71.21-2.34.7-3,.44,1.09-1.3,2-.93,3-1.53a3.62,3.62,0,0,0-1.39-.07,3.41,3.41,0,0,1-1.37-.27c-.34.48.25.79-.67,1.43-.65.46-1,.15-1.45.48a16.3,16.3,0,0,0,6.7,2.73,13.31,13.31,0,0,1,2.35.56c-1.18,1-3.68.44-4.93,0A17,17,0,0,1,87,39.25l.22.5A8.66,8.66,0,0,0,88.52,41a18,18,0,0,0,3.67,2.33c.48.25,1.5.67,1.8.9-.95.94-2.85.66-4.06.07a14.45,14.45,0,0,1-3.68-2.68,2.89,2.89,0,0,0-.3-.27l-.3-.14c.23,1.15,3.93,4.48,5,5.63-1,1-3.12-.21-4-1-1.68-1.47-3-3.77-3.43-3.82.61,1.49,3.42,4.94,3.62,5.66-1.65.8-3.51-1.88-4.34-3.26-.18-.3-.34-.56-.49-.84s-.24-.61-.54-.71c.13,1,1.88,3.54,1.52,4.39-1.23-.18-2.9-2.55-2.71-3.44.64.55.84,1.26,1.49,1.82-.15-.64-.59-1.39-.81-2.12a2.61,2.61,0,0,1,0-2.26c.58.62,3.08,4,3.45,4.09-.7-1.22-2.4-3.52-2.4-4.66,1.54-.41,4.15,3.53,5.66,4.48l.46.2A18.16,18.16,0,0,1,84,40.11c.35-.18.46-.12.91,0,2.09.54,4.1,3,6.18,3.6-.07-.2-2.27-1.57-2.77-2a19.77,19.77,0,0,1-2.9-2.82c1-1.57,2.38-2,3.42-5.2A3.28,3.28,0,0,0,89.07,32c-1,1.57-.91,3.28-3.18,5.29A4.27,4.27,0,0,1,82,38.37,15,15,0,0,1,77.8,45.6l0,0a14.72,14.72,0,0,1-9.46,3.69h0a14.73,14.73,0,0,1-9.46-3.69l0,0a15,15,0,0,1-4.18-7.23,4.27,4.27,0,0,1-3.91-1.12c-2.27-2-2.19-3.72-3.18-5.29a3.29,3.29,0,0,0,.24,1.77c1,3.2,2.43,3.63,3.42,5.2a19.82,19.82,0,0,1-2.9,2.82c-.5.4-2.7,1.77-2.77,2,2.08-.63,4.09-3.06,6.18-3.6.46-.12.57-.18.91,0a18.16,18.16,0,0,1-4.17,5.3l.46-.2c1.52-.95,4.12-4.89,5.66-4.48,0,1.15-1.7,3.44-2.4,4.66.37-.09,2.87-3.47,3.45-4.09a2.6,2.6,0,0,1,0,2.26c-.21.73-.66,1.48-.81,2.12.65-.56.85-1.26,1.49-1.82.19.88-1.48,3.26-2.71,3.44-.36-.84,1.39-3.34,1.52-4.39-.3.1-.37.4-.54.71s-.31.54-.49.84c-.83,1.38-2.69,4.06-4.34,3.26.2-.72,3-4.17,3.62-5.66-.41.05-1.75,2.35-3.43,3.82-.86.75-3,1.93-4,1,1.1-1.15,4.8-4.49,5-5.63l-.3.14a2.89,2.89,0,0,0-.3.27,14.42,14.42,0,0,1-3.68,2.68c-1.22.59-3.12.87-4.06-.07.3-.22,1.32-.65,1.8-.9A17.94,17.94,0,0,0,48.19,41a8.6,8.6,0,0,0,1.26-1.25l.23-.5a17,17,0,0,1-4.89,2.56c-1.25.41-3.75,1-4.93,0a13.28,13.28,0,0,1,2.35-.56,16.3,16.3,0,0,0,6.7-2.73c-.47-.33-.81,0-1.45-.48-.91-.65-.33-1-.67-1.43a3.41,3.41,0,0,1-1.37.27,3.62,3.62,0,0,0-1.39.07c1,.61,1.94.23,3,1.53-.69.26-2.33-.23-3-.44a8.57,8.57,0,0,1-3-1.45c1.27-.89,4.77-.62,5.54-.93-.42-.27-.85-.22-1.23-.76s-.12-.82-.2-1.24l-.46.07a2.22,2.22,0,0,1-.36.08,16.58,16.58,0,0,0-2.31.14c1,.51,1.79,0,3,1.32-.44.28,0,.11-.49.15-1.59.11-4.92-.82-6-1.91,1.34-.79,3.51-.7,5-.66a4.44,4.44,0,0,0,1.78,0c-1.45-1.26-.5-1.11-.84-2-1.55.71-3,0-4.22.4,1,.54,2.6.24,3.75,1.24-.56.29-3.49,0-4.34-.15-1-.21-3.3-.62-4.24-1.66,1.56-1.12,9.1-.24,9.67-.42-.12-.3-.65-.29-1-.93s.05-.72,0-1.15c-.45.08-.64.2-1.08.26-1,.14-2.56-.16-3.29.06.75.4,2.64.18,3.61,1.08a25,25,0,0,1-5-.19,12.42,12.42,0,0,1-3.72-1.07c-.32-.17-.93-.33-1.06-.73.45-.14,3.64.13,4.47.11a85.57,85.57,0,0,1,8.91.48c.76.12,4,.95,4.25,1.6-1.18-.3-2.82-.54-2.93,1.38-.16,2.8,3.15,7.57,6.34,6.83a14.77,14.77,0,0,1-.29-2.13c-1.08.31-2-.14-3.12-1.28-.93-.95-2.62-3.54-.93-4.16,1.37-.5,2.91,1,4.12,2.28.13-.35-.09-.62-.34-1.11a12.92,12.92,0,0,0-2.44-3.3,15.06,15.06,0,0,0-4.17-2.7,4.84,4.84,0,0,1-2.84,1.13,18.11,18.11,0,0,1-2.81,0c-1.11,0-4.41-.08-5.49,0s-2.54-.07-3.72-.11c-5.8-.19-13-.52-18.54-1.27A31.32,31.32,0,0,1,8.48,23.9c-.71-.21-1.19-.57-1.86-.73-.18.42.27,1.13.47,1.53,1.36,2.65,4.7,4.1,7.35,4.91.57.17.95.25,1.5.39a9.36,9.36,0,0,1,1.56.38c-.78.2-7.73-.18-8.16,0,2.9,3.83,9.11,4,9.77,4.37-.8.27-1.8-.16-2.52.16a12.07,12.07,0,0,0,6.34,2.88c.53.1.6.43,1,.88a13,13,0,0,0,1.17,1l1.4.62a22.76,22.76,0,0,0,7.32,1.1c.93,0,2-.05,2.95,0,1,.9,1,1.47,2.32,2a5.37,5.37,0,0,0,2.29.35c-.44.32-.61.15-1,.53C42.78,47,44,46,45.83,45.78L44,47.15a3.87,3.87,0,0,0,2.32,1.08c1.42.12,1.7-.44,2.33-.4l-.52.59a3.15,3.15,0,0,0,2.29.33,4.36,4.36,0,0,0,2.26-1.25,3.35,3.35,0,0,0-.28.93c.77.21,2.42-.93,3-1.5a6.86,6.86,0,0,0,1.1-1.44c.1-.18.26-.5.4-.77-.22,1.42-.63,2.87-3.42,4a19.89,19.89,0,0,0,14.91,6.7h0Zm23.35-16.2c.5-.23,1,0,1.78,0,2.59,0,10.93,1.09,12.64.12a14.86,14.86,0,0,0-2.84,0c-.88,0-1.85,0-2.88-.07-.85,0-5.19-.41-5.68-.77a10.62,10.62,0,0,1,1.84-.13l1.87-.09c2.32-.08,10.16-.06,11.51.87-2.52,1.48-6.66,1.51-9.07,1.53C99.13,40.66,93.15,40.14,91.72,39.17ZM45,39.17c-.5-.23-1,0-1.78,0-2.6,0-10.93,1.09-12.64.12a14.86,14.86,0,0,1,2.84,0c.88,0,1.85,0,2.88-.07.85,0,5.19-.41,5.68-.77a10.64,10.64,0,0,0-1.84-.13l-1.87-.09c-2.32-.08-10.16-.06-11.51.87,2.52,1.48,6.66,1.51,9.07,1.53C37.57,40.66,43.56,40.14,45,39.17Z"/></clipPath><linearGradient id="linear-gradient" x1="62.53" y1="42.11" x2="64.15" y2="10.09" gradientUnits="userSpaceOnUse"><stop offset="0" stop-color="#b8babc"/><stop offset="0.34" stop-color="#f9fbff"/><stop offset="1" stop-color="#6f6f6f"/></linearGradient></defs><title>logomenu4</title><path class="cls-2" d="M75.78,93.95V88.12h3.35l1.08,4.11h0V88.12h1.92v5.83H78.85l-1.14-4.23h0v4.23Zm-3.6-4.58-.64,1.91h1.29l-.64-1.91Zm-3.54,4.58,2-5.83h3.08l2.08,5.83H73.5l-.38-1.26H71.23l-.36,1.26Zm.29-1.68v1.54a5.8,5.8,0,0,1-1.6.23,4.64,4.64,0,0,1-1.37-.2,3.23,3.23,0,0,1-1.11-.58,2.7,2.7,0,0,1-.74-1A3.23,3.23,0,0,1,63.84,91a2.82,2.82,0,0,1,.27-1.26,2.6,2.6,0,0,1,.76-.92A3.38,3.38,0,0,1,66,88.21,4.75,4.75,0,0,1,67.33,88a5.61,5.61,0,0,1,.73,0l.86.14v1.54a3.77,3.77,0,0,0-1.12-.22,2.09,2.09,0,0,0-.86.17,1.34,1.34,0,0,0-.6.5,1.41,1.41,0,0,0-.22.79,1.59,1.59,0,0,0,.2.83,1.29,1.29,0,0,0,.56.51,1.92,1.92,0,0,0,.83.17A3.73,3.73,0,0,0,68.93,92.27Zm-8.47-2.9-.64,1.91h1.29l-.64-1.91Zm-3.54,4.58,2-5.83H62l2.08,5.83H61.78l-.38-1.26H59.5l-.36,1.26Zm-3.55-5.83v3.46q0,1,.69,1a.61.61,0,0,0,.56-.24,1.39,1.39,0,0,0,.15-.72V88.12H57v3.42A2.71,2.71,0,0,1,56.6,93a2,2,0,0,1-1,.8A4.5,4.5,0,0,1,54,94a4.24,4.24,0,0,1-1.5-.25,2.12,2.12,0,0,1-1-.78,2.31,2.31,0,0,1-.38-1.36V88.12Zm-5,2v-2h2.24v5.83H48.38V91.85H46.89v2.09H44.65V88.12h2.24v2Zm-9.21,3.82V88.12h5v1.4H41.36v.83H44.1v1.4H41.36v.79h2.92v1.4Zm-.11-5.83v1.72h-2v4.11H34.87V89.84h-2V88.12Z" transform="translate(-5.29 -7.66)"/><path class="cls-3" d="M101.31,91c0,.4,0,.71,0,.94a1.22,1.22,0,0,0,.2.57.56.56,0,0,0,.5.23.54.54,0,0,0,.49-.23,1.25,1.25,0,0,0,.19-.57c0-.23,0-.54,0-.94s0-.73,0-1a1.18,1.18,0,0,0-.19-.56.55.55,0,0,0-.49-.22.57.57,0,0,0-.5.22,1.16,1.16,0,0,0-.2.56c0,.23,0,.54,0,1m-2.22,0a3.57,3.57,0,0,1,.34-1.58,2.5,2.5,0,0,1,1-1.09,3.11,3.11,0,0,1,1.61-.39,3.25,3.25,0,0,1,1.22.22,2.58,2.58,0,0,1,.93.62,2.7,2.7,0,0,1,.59,1A3.71,3.71,0,0,1,105,91a3.65,3.65,0,0,1-.33,1.61,2.45,2.45,0,0,1-1,1.07,3.53,3.53,0,0,1-3.2,0,2.49,2.49,0,0,1-1-1.08A3.59,3.59,0,0,1,99.09,91ZM96.3,92.54h2.43V94H94V92.31a18.58,18.58,0,0,0,1.73-1,3.27,3.27,0,0,0,.6-.51.85.85,0,0,0,.22-.58.68.68,0,0,0-.32-.62,1.43,1.43,0,0,0-.78-.2,3.32,3.32,0,0,0-1.32.25V88.14A10.77,10.77,0,0,1,96,87.95a4.56,4.56,0,0,1,1.32.18,2,2,0,0,1,1,.61,1.67,1.67,0,0,1,.38,1.15,1.83,1.83,0,0,1-.21.88,2.59,2.59,0,0,1-.57.72,4.93,4.93,0,0,1-.74.55c-.26.16-.56.32-.9.5ZM90,91c0,.4,0,.71,0,.94a1.23,1.23,0,0,0,.2.57.56.56,0,0,0,.5.23.54.54,0,0,0,.49-.23,1.26,1.26,0,0,0,.19-.57c0-.23,0-.54,0-.94s0-.73,0-1a1.18,1.18,0,0,0-.19-.56.55.55,0,0,0-.49-.22.57.57,0,0,0-.5.22,1.17,1.17,0,0,0-.2.56C90,90.28,90,90.6,90,91ZM87.8,91a3.58,3.58,0,0,1,.34-1.58,2.51,2.51,0,0,1,1-1.09,3.11,3.11,0,0,1,1.61-.39,3.25,3.25,0,0,1,1.22.22,2.56,2.56,0,0,1,.93.62,2.7,2.7,0,0,1,.59,1,3.73,3.73,0,0,1,.2,1.25,3.65,3.65,0,0,1-.34,1.61,2.45,2.45,0,0,1-1,1.07,3.53,3.53,0,0,1-3.2,0,2.49,2.49,0,0,1-1-1.08A3.58,3.58,0,0,1,87.8,91ZM85,92.54h2.43V94H82.76V92.31a18.68,18.68,0,0,0,1.73-1,3.29,3.29,0,0,0,.6-.51.85.85,0,0,0,.22-.58.68.68,0,0,0-.32-.62,1.43,1.43,0,0,0-.78-.2,3.32,3.32,0,0,0-1.32.25V88.14a10.79,10.79,0,0,1,1.87-.19,4.56,4.56,0,0,1,1.32.18,2.05,2.05,0,0,1,1,.61,1.67,1.67,0,0,1,.38,1.15,1.83,1.83,0,0,1-.21.88,2.63,2.63,0,0,1-.57.72,4.89,4.89,0,0,1-.74.55c-.26.16-.56.32-.9.5Z" transform="translate(-5.29 -7.66)"/><path class="cls-4" d="M49.43,25a21.65,21.65,0,0,1,12-10c-.24.21-.48.44-.72.68a21.27,21.27,0,0,0-11.12,9.94,8.66,8.66,0,0,0-1.87-.93l-.37-.11-.33.2a4.25,4.25,0,0,1-2.48,1,18.35,18.35,0,0,1-2.68,0c-.92,0-1.84,0-2.76,0s-1.85,0-2.76,0c-1.23-.08-2.46-.06-3.7-.1-2.91-.09-5.83-.21-8.74-.39-3.24-.2-6.5-.45-9.72-.88a22.65,22.65,0,0,1-3-.62c-.81-.22-1.6-.48-2.4-.72s-1.2-.57-1.91-.74l-.7-.17-.29.66c-.34.79.15,1.58.5,2.26a10.38,10.38,0,0,0,5.33,4.42h-.91a5.22,5.22,0,0,0-1.81.18l-.89.47.61.8a11.3,11.3,0,0,0,6,3.74l.62.17.72.71a12.83,12.83,0,0,0,6.78,3.11h0a1.28,1.28,0,0,1,.14.17c.12.16.24.31.38.45a15.41,15.41,0,0,0,1.23,1.05l.19.16.14,0,1.29.58a22.93,22.93,0,0,0,7.65,1.17c.87,0,1.74,0,2.61,0,.29.29.52.6.8.91a4.05,4.05,0,0,0,1.54,1l.52.19.43.47a5.74,5.74,0,0,0,3.1,2l-.13.09.59.7a4.67,4.67,0,0,0,2.9,1.38A4.44,4.44,0,0,0,47.47,49l0,0a3.84,3.84,0,0,0,3,.54,4.6,4.6,0,0,0,1.26-.43l.34.09.21,0a21.16,21.16,0,0,0,32,0l.25,0,.34-.09a4.6,4.6,0,0,0,1.26.43,3.84,3.84,0,0,0,3-.54l0,0a4.44,4.44,0,0,0,1.28.06,4.67,4.67,0,0,0,2.9-1.38L94,47l-.13-.09a5.74,5.74,0,0,0,3.1-2l.43-.47.52-.19a4.06,4.06,0,0,0,1.54-1c.29-.31.52-.62.8-.91.87,0,1.74,0,2.61,0a22.93,22.93,0,0,0,7.65-1.17l1.29-.58.14,0,.19-.16a15.61,15.61,0,0,0,1.23-1.05c.14-.14.26-.29.38-.45a1.29,1.29,0,0,1,.14-.17h0a12.84,12.84,0,0,0,6.78-3.11l.72-.71.62-.17A11.3,11.3,0,0,0,128,31l.6-.8-.88-.47A5.23,5.23,0,0,0,126,29.5H125a10.38,10.38,0,0,0,5.33-4.42c.35-.69.84-1.47.5-2.26l-.29-.66-.7.17c-.7.17-1.24.54-1.91.74s-1.6.49-2.41.72a22.63,22.63,0,0,1-3,.62c-3.21.43-6.48.68-9.72.88-2.91.17-5.82.29-8.74.39-1.23,0-2.46,0-3.7.1-.91,0-1.85,0-2.76,0s-1.84,0-2.76,0a18.37,18.37,0,0,1-2.68,0,4.25,4.25,0,0,1-2.48-1l-.33-.2-.37.11a8.8,8.8,0,0,0-1.9.94,21.26,21.26,0,0,0-9.64-9.31,8,8,0,0,0-.53-.68A21.63,21.63,0,0,1,87.25,25a8,8,0,0,1,1.64-.77l.55-.16.49.31.69.44a3.43,3.43,0,0,0,.46.25,4,4,0,0,0,1.15.25,17.92,17.92,0,0,0,2.62,0c.92,0,1.85,0,2.77,0s1.84,0,2.76,0c1.23-.08,2.46-.06,3.69-.1,2.91-.09,5.82-.21,8.73-.39,3.24-.2,6.47-.44,9.68-.87a22.47,22.47,0,0,0,3-.61c.8-.22,1.6-.48,2.4-.71a5.59,5.59,0,0,0,.69-.27,6.87,6.87,0,0,1,1.24-.48l1-.25.43,1a1.85,1.85,0,0,1,.15.86,4.56,4.56,0,0,1-.66,1.77,9.5,9.5,0,0,1-3.89,3.79,2.79,2.79,0,0,1,1.11.22l1.33.71-.91,1.2a11.72,11.72,0,0,1-6.21,3.89l-.52.15-.64.63a13.13,13.13,0,0,1-6.9,3.21l0,0c-.13.16-.26.33-.4.48-.39.41-.84.71-1.26,1.08l-.28.25-.21,0c-.42.18-.83.38-1.24.55a15.49,15.49,0,0,1-4,1,34,34,0,0,1-3.79.25c-.81,0-1.62,0-2.43,0-.23.25-.44.52-.68.77a4.49,4.49,0,0,1-1.69,1.14l-.44.16-.35.39a6.57,6.57,0,0,1-2.92,2.06l-.63.75a5.08,5.08,0,0,1-3.19,1.53,5,5,0,0,1-1.19,0,4.4,4.4,0,0,1-3.27.52,5.11,5.11,0,0,1-1.22-.39l-.18,0-.19,0c-.3.34-.61.67-.92,1a21.57,21.57,0,0,1-30.49,0c-.32-.32-.63-.65-.94-1l-.14,0-.18,0a5.13,5.13,0,0,1-1.22.39,4.4,4.4,0,0,1-3.27-.52,5,5,0,0,1-1.19,0A5.09,5.09,0,0,1,43,48l-.63-.75a6.57,6.57,0,0,1-2.92-2.06l-.35-.39-.44-.16a4.51,4.51,0,0,1-1.69-1.14c-.23-.25-.44-.52-.67-.77-.81,0-1.62,0-2.43,0A34,34,0,0,1,30,42.47a15.46,15.46,0,0,1-4-1c-.42-.18-.83-.38-1.24-.55l-.21,0-.29-.25c-.42-.37-.87-.67-1.26-1.08-.14-.15-.28-.32-.4-.48l0,0a13.12,13.12,0,0,1-6.9-3.21l-.64-.63-.52-.15a11.71,11.71,0,0,1-6.21-3.89L7.41,30l1.33-.71a2.78,2.78,0,0,1,1.11-.22A9.5,9.5,0,0,1,6,25.29c-.11-.22-.23-.43-.33-.65a2.32,2.32,0,0,1-.18-2l.43-1,1,.25a6.91,6.91,0,0,1,1.24.48,5.54,5.54,0,0,0,.69.27c.8.24,1.59.49,2.39.71a22.46,22.46,0,0,0,3,.61c3.21.43,6.45.68,9.69.87,2.91.17,5.82.29,8.73.39,1.23,0,2.46,0,3.69.1.92,0,1.84,0,2.76,0s1.85,0,2.77,0a17.91,17.91,0,0,0,2.62,0,4,4,0,0,0,1.15-.25,3.5,3.5,0,0,0,.46-.25l.69-.44.49-.31.55.16a7.91,7.91,0,0,1,1.61.75" transform="translate(-5.29 -7.66)"/><path class="cls-5" d="M53,48.71a1.52,1.52,0,0,1-.76,0L52,48.67l0-.23a.47.47,0,0,1,0-.05,3.77,3.77,0,0,1-1.59.67,3.38,3.38,0,0,1-2.57-.41l-.23-.21a3.68,3.68,0,0,1-1.38.11,4.17,4.17,0,0,1-2.54-1.2l-.23-.27,1-.74-.52.07a3.37,3.37,0,0,1-1.76-.26,6.55,6.55,0,0,1-2.08-1.64l-.22-.25.25-.22h0A4.29,4.29,0,0,1,39,43.73a3.54,3.54,0,0,1-1.35-.91c-.16-.18-.31-.37-.47-.55a6.8,6.8,0,0,0-.51-.53c-.94,0-1.88,0-2.82,0a32.59,32.59,0,0,1-3.68-.25c-.67-.08-1.35-.19-2-.34a10.13,10.13,0,0,1-1.76-.54l-.69-.31L25,40H25L24.91,40c-.18-.15-.36-.29-.54-.43a6.16,6.16,0,0,1-.65-.58c-.12-.13-.23-.27-.35-.41a1.53,1.53,0,0,0-.22-.25.59.59,0,0,0-.29-.13,12.34,12.34,0,0,1-6.51-3L16,34.86l.44-.2.11,0c-.54-.11-1.07-.24-1.6-.39a10.94,10.94,0,0,1-5.89-3.6l-.23-.31.34-.18a1.73,1.73,0,0,1,.6-.1h1c.9,0,1.8,0,2.7,0l1.53,0-.63-.17c-2.79-.85-6.16-2.34-7.55-5.07-.11-.22-.23-.42-.33-.64A1.49,1.49,0,0,1,6.32,23l.11-.25.27.07c.67.16,1.23.54,1.88.73.8.24,1.61.5,2.41.72a23,23,0,0,0,3.11.63c3.23.43,6.5.68,9.75.88,2.92.17,5.83.29,8.75.39,1.24,0,2.47,0,3.71.1l1.16,0h1.59c.91,0,1.83,0,2.75,0a18.74,18.74,0,0,0,2.76,0,5.22,5.22,0,0,0,1.22-.23,3.89,3.89,0,0,0,.59-.29l.89-.56.13-.08.14,0a6,6,0,0,1,1.12.5c.45.25.9.53,1.32.82s.7.49,1,.75a10.27,10.27,0,0,1,.83.71,13.29,13.29,0,0,1,2.5,3.38c.23.44.55.85.36,1.37l-.18.5-.37-.37c-.28-.28-.56-.57-.85-.84-.67-.63-1.91-1.73-2.93-1.36A.73.73,0,0,0,50,31c-.26.53.2,1.46.46,1.92a7,7,0,0,0,1,1.36,3.74,3.74,0,0,0,2.09,1.27,1.91,1.91,0,0,0,.7-.08l.39-.11,0,.41a14.64,14.64,0,0,0,.28,2.08l0,.22.06.24a14.6,14.6,0,0,0,4.09,7.07l.1.1a14.26,14.26,0,0,0,9.1,3.49h0a14.26,14.26,0,0,0,9.1-3.49l.1-.1a14.62,14.62,0,0,0,4.09-7.07l.06-.24,0-.22a14.79,14.79,0,0,0,.29-2.08l0-.41.39.11a1.91,1.91,0,0,0,.7.08,3.74,3.74,0,0,0,2.09-1.27,7.09,7.09,0,0,0,1-1.36c.26-.46.72-1.39.46-1.92a.73.73,0,0,0-.43-.34,1.29,1.29,0,0,0-.35-.07c-1.18-.07-2.64,1.48-3.42,2.28l-.37.38-.18-.5c-.18-.52.13-.93.36-1.37A13.32,13.32,0,0,1,84.86,28a10.78,10.78,0,0,1,.83-.71c.34-.26.68-.51,1-.75s.87-.57,1.33-.82a5.92,5.92,0,0,1,1.12-.5l.14,0,.13.08.89.56a3.85,3.85,0,0,0,.59.29,5.21,5.21,0,0,0,1.22.23,18.74,18.74,0,0,0,2.76,0c.91,0,1.83,0,2.75,0h1.59l1.16,0c1.24-.08,2.47-.06,3.71-.1,2.92-.09,5.84-.21,8.75-.39,3.25-.2,6.53-.45,9.75-.88a22.9,22.9,0,0,0,3.11-.63c.81-.22,1.61-.48,2.42-.72.65-.2,1.21-.57,1.88-.73l.27-.07.11.25a1.49,1.49,0,0,1-.15,1.17c-.1.22-.22.43-.33.64-1.4,2.73-4.76,4.23-7.55,5.07l-.63.17,1.53,0c.9,0,1.8,0,2.71,0h1a1.74,1.74,0,0,1,.6.1l.34.18-.23.31a10.94,10.94,0,0,1-5.89,3.6c-.53.15-1.06.28-1.6.39l.11,0,.44.2-.34.34a12.34,12.34,0,0,1-6.5,3,.6.6,0,0,0-.29.13,1.64,1.64,0,0,0-.22.25c-.11.14-.22.28-.34.41a6.16,6.16,0,0,1-.65.58l-.54.43-.07.06h-.06l-.21.09-.46.2-.69.31a10.13,10.13,0,0,1-1.76.54c-.66.15-1.34.26-2,.34a32.59,32.59,0,0,1-3.68.25c-.94,0-1.88,0-2.82,0a6.62,6.62,0,0,0-.51.53c-.15.18-.3.37-.47.55a3.54,3.54,0,0,1-1.35.91,4.29,4.29,0,0,1-1.16.32h0l.25.22-.22.25a6.56,6.56,0,0,1-2.08,1.64,3.37,3.37,0,0,1-1.77.26l-.52-.07,1,.74-.23.27a4.17,4.17,0,0,1-2.54,1.2,3.67,3.67,0,0,1-1.38-.11l-.23.21a3.39,3.39,0,0,1-2.57.41,3.76,3.76,0,0,1-1.59-.67s0,0,0,.05l0,.23-.22.06a1.52,1.52,0,0,1-.76,0l-.17.18A20.11,20.11,0,0,1,68.37,55.7h0a20.11,20.11,0,0,1-15.16-6.81Z" transform="translate(-5.29 -7.66)"/><g class="cls-6"><rect class="cls-7" x="1.15" y="15.51" width="123.83" height="32.19"/></g><path class="cls-8" d="M77.88,49.75l.22-.16-.36-.5Zm-1.33.13a.4.4,0,0,0,.15.18.15.15,0,0,0,.15,0,.17.17,0,0,0,.11-.14.7.7,0,0,0-.08-.3l0-.07a.48.48,0,0,0-.16-.21.18.18,0,0,0-.17,0,.15.15,0,0,0-.09.12.41.41,0,0,0,.05.23ZM65.37,51.23l-.3,1.63h0a.54.54,0,0,0,.42-.05.67.67,0,0,0,.19-.41l.1-.56a.63.63,0,0,0,0-.43.55.55,0,0,0-.36-.18ZM79.54,49.3l-1-1.33-.14.1-.16-.22.42-.31,1.13,1.55L80,49l.16.22-.57.42-.16-.22Zm-1.17.09.13-.09.16.23-.13.09.19.27.13-.1L79,50l-.55.39-.16-.23.15-.11-.19-.27-.46.33-.14-.2-.3-1.44.26-.19Zm-1.25.78,0,.06a.44.44,0,0,1-.15.12.41.41,0,0,1-.41,0,1,1,0,0,1-.34-.42.81.81,0,0,1-.09-.52.51.51,0,0,1,.3-.34.45.45,0,0,1,.42,0,.86.86,0,0,1,.33.4l.38.79a1,1,0,0,1,.12.54.45.45,0,0,1-.28.33.5.5,0,0,1-.41,0,.56.56,0,0,1-.3-.3l-.06-.11.28-.13.05.11a.32.32,0,0,0,.13.16.19.19,0,0,0,.16,0,.17.17,0,0,0,.1-.12.47.47,0,0,0-.06-.24Zm-1.37,1.41-.7-1.49-.16.08-.12-.25.47-.22.82,1.74.17-.08.12.25-.64.3-.12-.25Zm-2.43,1L72.79,51l-.2.07-.09-.27,1.39-.47.21.63-.3.1-.12-.35-.54.18.19.57.52-.18.1.29-.52.18.24.71.55-.19-.14-.4.31-.1.23.67-1.4.48-.09-.27ZM72.1,50.89v-.06l.27-.06.15.7-.29.06,0-.09a.61.61,0,0,0-.14-.26.2.2,0,0,0-.19,0,.25.25,0,0,0-.19.13.51.51,0,0,0,0,.3l.2.94a.5.5,0,0,0,.13.27.3.3,0,0,0,.41-.09.49.49,0,0,0,0-.3l0-.11.32-.07,0,.09a.79.79,0,0,1,0,.55.68.68,0,0,1-.92.19.8.8,0,0,1-.27-.48l-.18-.86a.86.86,0,0,1,0-.56.53.53,0,0,1,.39-.28.59.59,0,0,1,.23,0ZM69.8,53.13l-.2-1.66-.21,0,0-.28.57-.07.75,1.36-.14-1.15-.21,0,0-.28L71,51l0,.28-.21,0,.24,2-.3,0L70,51.83l.15,1.27.21,0,0,.28-.73.09,0-.28Zm-1.09,0,0-1.67h-.21v-.28h.78v.29H69l0,1.67h.21v.28h-.78v-.28Zm-1-1.85v-.09H68v.63h-.29v0a.51.51,0,0,0-.12-.25.27.27,0,0,0-.2-.08.21.21,0,0,0-.15.07.21.21,0,0,0-.06.15.28.28,0,0,0,0,.14.7.7,0,0,0,.15.15l.4.32a1,1,0,0,1,.25.28.67.67,0,0,1,.09.32.55.55,0,0,1-.15.41.57.57,0,0,1-.41.17.51.51,0,0,1-.25-.06.67.67,0,0,1-.14-.1v.13h-.27l0-.74h.3v0a.64.64,0,0,0,.13.33.29.29,0,0,0,.24.1.23.23,0,0,0,.17-.07.24.24,0,0,0,.06-.18.29.29,0,0,0-.05-.16.77.77,0,0,0-.16-.17l-.37-.29a1,1,0,0,1-.24-.27.65.65,0,0,1-.09-.31.57.57,0,0,1,.14-.4.48.48,0,0,1,.36-.16.52.52,0,0,1,.24,0Zm-3,1.48.3-1.64-.21,0,.05-.28.58.11a1,1,0,0,1,.64.31.93.93,0,0,1,.08.69l-.09.49a1,1,0,0,1-.31.63.81.81,0,0,1-.64.1L64.46,53l.05-.28Zm-2-.46.41-1.62L63,50.68,63,50.4l.56.14.21,1.54L64.09,51l-.21-.05.07-.27.71.18-.07.28L64.39,51,63.91,53l-.3-.08-.23-1.69-.31,1.24.21.05-.07.27-.71-.18.07-.27Zm-1.66-.68.65-1.54-.2-.08.11-.26,1.35.57-.26.61-.29-.13.14-.34-.53-.22-.23.55.51.21-.12.29-.51-.21-.29.69L62,52l.16-.39.3.13-.28.66-1.36-.57.11-.26Zm-.8-.19a.56.56,0,0,1-.18,0,.57.57,0,0,1-.22-.08.55.55,0,0,1-.29-.39.81.81,0,0,1,.13-.53l.48-.83a.69.69,0,0,1,.38-.33.55.55,0,0,1,.46.06.51.51,0,0,1,.17.16.51.51,0,0,1,.05.11l0-.07.24.14-.34.59L61,50.18l0-.08a.53.53,0,0,0,.06-.27.22.22,0,0,0-.12-.15.25.25,0,0,0-.23,0,.52.52,0,0,0-.21.22L60,50.7a.51.51,0,0,0-.09.29.26.26,0,0,0,.14.18.25.25,0,0,0,.23,0,.51.51,0,0,0,.21-.22l.07-.12-.19-.11.16-.27.48.28-.55,1-.17-.1ZM58.16,50l.93-1.39-.18-.12.16-.24,1.21.82-.37.55-.27-.18.21-.31-.48-.32-.33.5.46.31-.17.26-.46-.31-.42.62.49.33.23-.35.27.18-.4.59-1.23-.83.16-.23Zm-1.44-1,1-1.35-.17-.13.17-.23.63.46-.17.23L58,47.83l-1,1.34.45.33.25-.34.26.19-.42.58-1.17-.86.17-.23Z" transform="translate(-5.29 -7.66)"/><path class="cls-9" d="M88.41,18.6l.38-.7-.74.28Zm-5.67-5.69.26.18a1.87,1.87,0,0,0,.35.22.21.21,0,0,0,.14,0,.28.28,0,0,0,.13-.1.26.26,0,0,0,.05-.17.25.25,0,0,0-.08-.16,2.43,2.43,0,0,0-.27-.21l-.27-.2Zm-2.55-1.21a.86.86,0,0,0-.1.6.6.6,0,0,0,.79.4.88.88,0,0,0,.42-.45.87.87,0,0,0,.11-.59.57.57,0,0,0-.31-.37.58.58,0,0,0-.48,0A.88.88,0,0,0,80.19,11.69ZM73.95,9.25l.31.07a1.84,1.84,0,0,0,.41.06.22.22,0,0,0,.13-.06.28.28,0,0,0,.08-.14.26.26,0,0,0,0-.18.25.25,0,0,0-.14-.12,2.89,2.89,0,0,0-.33-.08l-.33-.07ZM63.61,8.54,63.89,10l.31-.06a1.39,1.39,0,0,0,.27-.07.39.39,0,0,0,.16-.12.46.46,0,0,0,.07-.23,1.48,1.48,0,0,0,0-.42,1.34,1.34,0,0,0-.12-.39.51.51,0,0,0-.16-.19.42.42,0,0,0-.22-.06,2.14,2.14,0,0,0-.37,0ZM47.94,19.06l-.76-.24.42.67Zm41.82,1.53,1.45-.48h0l.38.59a0,0,0,0,1,0,0l-2,1.26a0,0,0,0,1,0,0l-.24-.37a0,0,0,0,1,0,0l1.34-.86-1.56.53h0l-.24-.38a0,0,0,0,1,0,0L90,19.64l-1.34.86a0,0,0,0,1,0,0l-.24-.37a0,0,0,0,1,0,0l2-1.26a0,0,0,0,1,0,0l.38.59a0,0,0,0,1,0,0ZM88.18,19l-.58-.67-.51.19h0l-.33-.38a0,0,0,0,1,0,0l0,0,2.35-.84h0l.33.38a0,0,0,0,1,0,0l-1.15,2.23h0l-.33-.38a0,0,0,0,1,0,0Zm-2.47-2,1.6-1.69a0,0,0,0,1,0,0l.34.32a0,0,0,0,1,0,0l-1.6,1.69a0,0,0,0,1,0,0l-.34-.32A0,0,0,0,1,85.71,17.08ZM85,13.91l-.28.36.9.69a0,0,0,0,1,0,0l-.24.31a0,0,0,0,1,0,0l-.9-.69-.35.45,1,.78a0,0,0,0,1,0,0l-.24.31a0,0,0,0,1,0,0l-1.4-1.08a0,0,0,0,1,0,0l1.42-1.84a0,0,0,0,1,0,0l1.36,1.05a0,0,0,0,1,0,0l-.24.31a0,0,0,0,1,0,0Zm-1.75-.2a1,1,0,0,1,.06.24,2.77,2.77,0,0,1,0,.47l0,.53,0,0h0l-.46-.33a0,0,0,0,1,0,0l0-.61a2.69,2.69,0,0,0,0-.42.33.33,0,0,0-.05-.15.78.78,0,0,0-.17-.15l-.05,0-.55.76a0,0,0,0,1,0,0l-.38-.28a0,0,0,0,1,0,0l1.36-1.89a0,0,0,0,1,0,0l.8.58a1.79,1.79,0,0,1,.41.38.56.56,0,0,1,.09.36.71.71,0,0,1-.14.37.66.66,0,0,1-.4.27A.71.71,0,0,1,83.23,13.71ZM79.7,11.46a1.53,1.53,0,0,1,.37-.5,1.12,1.12,0,0,1,.35-.19,1,1,0,0,1,.38-.05,1.34,1.34,0,0,1,.5.15,1.12,1.12,0,0,1,.61.67,1.27,1.27,0,0,1-.13,1,1.26,1.26,0,0,1-.69.66,1.11,1.11,0,0,1-.9-.09,1.14,1.14,0,0,1-.61-.67A1.24,1.24,0,0,1,79.7,11.46Zm-1-1.27-.2.45.86.38a0,0,0,0,1,0,0l-.16.36a0,0,0,0,1,0,0l-.86-.38-.39.87a0,0,0,0,1,0,0l-.43-.19a0,0,0,0,1,0,0l.95-2.13a0,0,0,0,1,0,0l1.46.65a0,0,0,0,1,0,0l-.16.36a0,0,0,0,1,0,0Zm-2.2-.82-.15.43,1.07.36a0,0,0,0,1,0,0l-.13.37a0,0,0,0,1,0,0l-1.07-.36-.18.54,1.2.41a0,0,0,0,1,0,0l-.12.37a0,0,0,0,1,0,0L75.43,11a0,0,0,0,1,0,0l.75-2.2a0,0,0,0,1,0,0l1.63.55a0,0,0,0,1,0,0l-.13.37a0,0,0,0,1,0,0Zm-1.8.41a1,1,0,0,1,.15.2,2.73,2.73,0,0,1,.18.43l.18.5a0,0,0,0,1,0,0h0l-.55-.12,0,0-.22-.57a2.48,2.48,0,0,0-.17-.38.32.32,0,0,0-.11-.12.81.81,0,0,0-.22-.07h-.06l-.21.92a0,0,0,0,1,0,0l-.46-.1a0,0,0,0,1,0,0l.51-2.27a0,0,0,0,1,0,0l1,.22a1.84,1.84,0,0,1,.52.18.56.56,0,0,1,.23.29.69.69,0,0,1,0,.4.65.65,0,0,1-.26.41A.74.74,0,0,1,74.72,9.79Zm-3-1.46-.06.46,1.13.13a0,0,0,0,1,0,0l0,.39a0,0,0,0,1,0,0l-1.13-.13-.07.57,1.26.15a0,0,0,0,1,0,0l0,.39a0,0,0,0,1,0,0L71,10.19a0,0,0,0,1,0,0l.28-2.31a0,0,0,0,1,0,0L73,8a0,0,0,0,1,0,0l0,.39a0,0,0,0,1,0,0Zm-2.54.27.86,0,0-.89a0,0,0,0,1,0,0h.47a0,0,0,0,1,0,0l0,2.33a0,0,0,0,1,0,0h-.47a0,0,0,0,1,0,0l0-1-.86,0,0,1a0,0,0,0,1,0,0h-.47a0,0,0,0,1,0,0l0-2.33a0,0,0,0,1,0,0h.47a0,0,0,0,1,0,0Zm-2.06-.46h-.66a0,0,0,0,1,0,0V7.73a0,0,0,0,1,0,0l1.85,0a0,0,0,0,1,0,0v.39a0,0,0,0,1,0,0h-.66l0,1.9a0,0,0,0,1,0,0h-.47a0,0,0,0,1,0,0Zm-4.1,0L63.88,8a1.63,1.63,0,0,1,.45,0,.8.8,0,0,1,.4.15,1,1,0,0,1,.3.34A1.73,1.73,0,0,1,65.2,9a1.57,1.57,0,0,1,0,.51A1.07,1.07,0,0,1,65,10a.84.84,0,0,1-.3.25,1.38,1.38,0,0,1-.41.13l-.87.16a0,0,0,0,1,0,0L63,8.22A0,0,0,0,1,63,8.18ZM61.42,9l.1.45,1.11-.25a0,0,0,0,1,0,0l.09.38a0,0,0,0,1,0,0l-1.11.25.13.56L63,10.17a0,0,0,0,1,0,0l.09.38a0,0,0,0,1,0,0L61.36,11a0,0,0,0,1,0,0l-.51-2.27a0,0,0,0,1,0,0l1.68-.38a0,0,0,0,1,0,0l.09.38a0,0,0,0,1,0,0Zm-1.26,1.47L59.7,9.09a0,0,0,0,1,0,0l.41-.14a0,0,0,0,1,0,0l.75,2.2a0,0,0,0,1,0,0l-.45.15h0l-1.3-1.08.46,1.35a0,0,0,0,1,0,0l-.41.14a0,0,0,0,1,0,0l-.74-2.2a0,0,0,0,1,0,0l.43-.15h0Zm-1.89,1.67-1-2.11a0,0,0,0,1,0,0l.43-.2a0,0,0,0,1,0,0l1,2.11a0,0,0,0,1,0,0l-.43.2A0,0,0,0,1,58.28,12.14Zm-1.47.24,1-.51a0,0,0,0,1,0,0l.18.35a0,0,0,0,1,0,0L56.56,13a0,0,0,0,1,0,0l-1-2.06a0,0,0,0,1,0,0l.42-.21a0,0,0,0,1,0,0Zm-1.5.27.46-.13a0,0,0,0,1,0,0,1.07,1.07,0,0,1,0,.69,1.12,1.12,0,0,1-1.27.66,1.25,1.25,0,0,1-.74-.58,1.32,1.32,0,0,1-.24-.94,1.06,1.06,0,0,1,.5-.72,1,1,0,0,1,.74-.17,1,1,0,0,1,.45.24v0l-.33.34h0a.47.47,0,0,0-.28-.14.46.46,0,0,0-.3.08.5.5,0,0,0-.24.36.92.92,0,0,0,.19.57,1,1,0,0,0,.46.43.48.48,0,0,0,.42-.06.44.44,0,0,0,.2-.26.67.67,0,0,0,0-.4,0,0,0,0,1,0,0Zm-2.1,1.41-.89-1.15a0,0,0,0,1,0,0l.34-.26a0,0,0,0,1,0,0l1.42,1.84a0,0,0,0,1,0,0l-.37.29h0l-1.58-.59L53,15.32a0,0,0,0,1,0,0l-.34.27a0,0,0,0,1,0,0L51.2,13.78a0,0,0,0,1,0,0l.36-.28h0Zm-1.28,2.15-1.53-1.75a0,0,0,0,1,0,0l.35-.31a0,0,0,0,1,0,0l1.53,1.75a0,0,0,0,1,0,0l-.36.31A0,0,0,0,1,51.92,16.22Zm-2.38,1.11L48.74,16a0,0,0,0,1,0,0l.49-.51a0,0,0,0,1,0,0L51,17.09a0,0,0,0,1,0,0l-.3.31a0,0,0,0,1,0,0l-1.16-1.09.88,1.39a0,0,0,0,1,0,0l-.31.33h0l-1.43-.81,1.15,1.1a0,0,0,0,1,0,0l-.3.32a0,0,0,0,1,0,0l-1.69-1.6a0,0,0,0,1,0,0l.49-.51h0ZM48.41,19.2l-.55.7.29.46a0,0,0,0,1,0,0l-.31.39h0l0,0-1.28-2.14a0,0,0,0,1,0,0l.31-.39h0l2.41.7,0,0a0,0,0,0,1,0,0l-.31.4h0Zm17.8-9.09H66a0,0,0,0,1,0,0l0-.42a0,0,0,0,1,0,0l.42,0a0,0,0,0,1,0,0l0,.42a.8.8,0,0,1-.06.4.58.58,0,0,1-.26.26,0,0,0,0,1-.05,0L66,10.54a0,0,0,0,1,0,0l0,0a.29.29,0,0,0,.14-.14A.56.56,0,0,0,66.21,10.1ZM47,22l-2-1.26a0,0,0,0,1,0,0l.25-.4a0,0,0,0,1,0,0l2,1.26a0,0,0,0,1,0,0l-.25.4A0,0,0,0,1,47,22Z" transform="translate(-5.29 -7.66)"/><path class="cls-10" d="M81.57,77.17V66.54h9.22V69.1H85.57v1.51h5v2.56h-5v1.45H90.9v2.56ZM63.46,68.91v2.27h1.06A2.75,2.75,0,0,0,65.75,71a1,1,0,0,0,.44-1,.89.89,0,0,0-.42-.88,2.6,2.6,0,0,0-1.17-.22Zm-11-.09-1.17,3.49h2.36L52.5,68.82Zm28.18,4.42v3.94h-9.1v-8.7l-.31-.31h-.49V66.54h5.68v1.63h-.49l-.31.31V74H78.7l.31-.31v-.49ZM98,66.54h5v1.63h-.49l-.31.31-.42.78-2.52,4.65v1.33l.31.3H100v1.63H94.3V75.54h.49l.3-.3V73.91l-2.52-4.65-.42-.78-.31-.31h-.49V66.54h5v1.63h-.38L97,71h.29l1.06-2.82H98ZM41.39,70.21V68.48l-.31-.31h-.49V66.54h5.68v1.63h-.49l-.31.31v.78h0v5.2h0v.78l.31.31h.49v.86l3.46-9.87h5.63L58.76,76v-.5h.49l.31-.31V68.48l-.31-.31h-.49V66.54h7.4a7.53,7.53,0,0,1,2.22.29,2.75,2.75,0,0,1,1.4.92,2.59,2.59,0,0,1,.49,1.63q0,2.21-2.54,2.82v0a2.61,2.61,0,0,1,1.8,1.14,3.75,3.75,0,0,1,.34.86q.11.41.22,1l.31.31h.49l0,1.63H65.2V75.54h.49l.31-.31h0c0-.14,0-.27-.06-.39a2.4,2.4,0,0,0-.22-.73.86.86,0,0,0-.44-.44,2,2,0,0,0-.72-.11h-.91v1.85l.13.13h.49v1.63H54.88l-.7-2.3H50.73l-.65,2.3H40.59V75.54h.49l.31-.31V73.35H38.66v1.88l.31.31h.49v1.63H33.78V75.54h.49l.31-.31V68.48l-.31-.31h-.49V66.54h5.68v1.63H39l-.31.31v1.73Z" transform="translate(-5.29 -7.66)"/><path class="cls-4" d="M81.88,76.84h8.67v-1.9h-5a.33.33,0,0,1-.33-.33V73.17a.33.33,0,0,1,.33-.33h4.67v-.68H81.88Zm-1.59-3.28h-1v.16a.31.31,0,0,1-.1.23l-.31.31a.31.31,0,0,1-.23.1H75.61a.33.33,0,0,1-.33-.33V72.15H71.85v4.69h8.44Zm14.2-1.41.87,1.6a.31.31,0,0,1,0,.16v1.33a.32.32,0,0,1-.1.23l-.3.3a.32.32,0,0,1-.23.1H94.6v1h5v-1h-.16a.32.32,0,0,1-.23-.1l-.3-.3a.31.31,0,0,1-.1-.23V73.91a.31.31,0,0,1,0-.16l.87-1.6Zm-59.6,0v3.08a.33.33,0,0,1-.1.23l-.31.31a.32.32,0,0,1-.23.1h-.16v1h5v-1H39a.32.32,0,0,1-.23-.1l-.31-.31a.32.32,0,0,1-.1-.23V73.35a.33.33,0,0,1,.33-.33h2.73a.33.33,0,0,1,.33.33v1.88a.32.32,0,0,1-.1.23l-.31.31a.32.32,0,0,1-.23.1H40.9v1h8.9l.59-2.06a.33.33,0,0,1,.32-.24h3.45a.33.33,0,0,1,.32.23l.63,2.07H63.9v-1h-.16a.32.32,0,0,1-.23-.1l-.13-.13a.32.32,0,0,1-.1-.23V73.56a.33.33,0,0,1,.33-.33h.91a2.34,2.34,0,0,1,.84.13A1.18,1.18,0,0,1,66,74a2.75,2.75,0,0,1,.26.83l.06.39a.32.32,0,0,1-.09.28l-.31.31a.32.32,0,0,1-.23.1H65.5v1h5l0-1h-.15a.32.32,0,0,1-.23-.1l-.31-.31a.31.31,0,0,1-.09-.17c-.06-.33-.13-.66-.22-1a3.38,3.38,0,0,0-.31-.77,2.28,2.28,0,0,0-1.58-1,.33.33,0,0,1-.27-.33v0s0,0,0,0H59.86v3.08a.32.32,0,0,1-.1.23l-.31.31a.32.32,0,0,1-.23.1h-.16V76a.33.33,0,0,1-.64.11l-1.43-4H53.92l0,.06a.32.32,0,0,1,0,.3.32.32,0,0,1-.27.14H51.27a.33.33,0,0,1-.31-.43l0-.06H48.09l-1.53,4.36a.33.33,0,0,1-.64-.11v-.53h-.16a.32.32,0,0,1-.23-.1l-.31-.31a.33.33,0,0,1-.1-.23v-.72a.34.34,0,0,1,0-.06v-2.3Z" transform="translate(-5.29 -7.66)"/><path class="cls-10" d="M52,58.81V57.08l-.31-.31h-.48V55.13H56.7l.19.11v1.52H56.4l-.31.31v.78h0V63h0v.78l.31.31h.49v1.63H51.21V64.14h.48l.31-.31V61.94H49.27v1.88l.31.31h.49v1.63H44.39V64.14h.49l.31-.31V57.08l-.31-.31h-.49V55.13h5.68v1.63h-.49l-.31.31v1.73Zm10.45-1.26v6.28l.31.31h.49v1.63H57.57V64.14h.49l.31-.31V57.08l-.31-.31h-.49V55.63A22.84,22.84,0,0,0,62.46,57.55Zm10.24.35v.6H71.06v-.34Q71.88,58.05,72.69,57.89Zm0,4.82v2.82A10.66,10.66,0,0,1,69.8,66a8.46,8.46,0,0,1-2.5-.36,5.88,5.88,0,0,1-2-1.07,4.89,4.89,0,0,1-1.36-1.78,5.89,5.89,0,0,1-.49-2.45,5.13,5.13,0,0,1,.5-2.31l0-.1a23,23,0,0,0,4.36.42h.22a2.43,2.43,0,0,0-.57.61,2.58,2.58,0,0,0-.39,1.44A2.92,2.92,0,0,0,68,61.87a2.32,2.32,0,0,0,1,.93,3.33,3.33,0,0,0,1.26.31h.51l.31-.31v-.49h1.63v.4Zm4.8-2.28a3.68,3.68,0,0,1,.67-2.56,1.44,1.44,0,0,1,2.28.52,6.38,6.38,0,0,1,.34,2.05q0,.5,0,.9a5.55,5.55,0,0,1-.27,1.13,1.54,1.54,0,0,1-.19.37l0,.06a1.34,1.34,0,0,1-1.11.46Q77.52,63.37,77.52,60.43Zm6.91,2.93a4.33,4.33,0,0,1-.93,1.19,5,5,0,0,1-1.87,1,8.31,8.31,0,0,1-2.5.35,8.14,8.14,0,0,1-2.49-.35,5,5,0,0,1-1.86-1,4.42,4.42,0,0,1-1.15-1.73,6.61,6.61,0,0,1-.4-2.38,6.74,6.74,0,0,1,.32-2.13h0l.09-.27c.05-.14.11-.28.18-.41A22.82,22.82,0,0,0,80.22,55a7.43,7.43,0,0,1,1.43.29,5,5,0,0,1,1.87,1A4.46,4.46,0,0,1,84.7,58a6.58,6.58,0,0,1,.4,2.38,6.51,6.51,0,0,1-.4,2.36A5,5,0,0,1,84.43,63.36ZM43.7,62.71v2.82a10.67,10.67,0,0,1-2.93.43,8.46,8.46,0,0,1-2.5-.36,5.88,5.88,0,0,1-2-1.07,4.9,4.9,0,0,1-1.36-1.78,5.89,5.89,0,0,1-.49-2.45,5.15,5.15,0,0,1,.5-2.31,4.73,4.73,0,0,1,1.38-1.69,6.17,6.17,0,0,1,2-1A8.66,8.66,0,0,1,40.78,55,10.12,10.12,0,0,1,42.1,55c.38.05.9.14,1.57.26v3.21H42V58l-.31-.31h-.25a3.75,3.75,0,0,0-1.41.31,2.46,2.46,0,0,0-1.09.91,2.58,2.58,0,0,0-.39,1.44A2.91,2.91,0,0,0,39,61.87a2.32,2.32,0,0,0,1,.93,3.33,3.33,0,0,0,1.26.31h.51l.31-.31v-.49H43.7v.4Z" transform="translate(-5.29 -7.66)"/><path class="cls-4" d="M45.52,60.19v3.63a.32.32,0,0,1-.1.23l-.31.31a.32.32,0,0,1-.23.1h-.16v1h5v-1h-.16a.32.32,0,0,1-.23-.1L49,64.06a.32.32,0,0,1-.1-.23V61.94a.33.33,0,0,1,.33-.33H52a.33.33,0,0,1,.33.33v1.88a.32.32,0,0,1-.1.23l-.31.31a.32.32,0,0,1-.23.1h-.16v1h5v-1H56.4a.32.32,0,0,1-.23-.1l-.31-.31a.32.32,0,0,1-.1-.23v-.72a.28.28,0,0,1,0-.06V60.19Zm13.18,0v3.63a.32.32,0,0,1-.1.23l-.31.31a.31.31,0,0,1-.23.1H57.9v1h5v-1h-.16a.32.32,0,0,1-.23-.1l-.31-.31a.32.32,0,0,1-.1-.23V60.19Zm13.69,2.55s0,0,0,0v-.07h-1v.16a.32.32,0,0,1-.1.23l-.31.31a.32.32,0,0,1-.23.1h-.53a3.69,3.69,0,0,1-1.38-.34A2.65,2.65,0,0,1,67.69,62a3.25,3.25,0,0,1-.42-1.68c0-.06,0-.11,0-.17H63.76v.11a5.58,5.58,0,0,0,.45,2.31,4.55,4.55,0,0,0,1.27,1.66,5.58,5.58,0,0,0,1.92,1,8.18,8.18,0,0,0,2.41.34,10.22,10.22,0,0,0,2.6-.35Zm1.18-2.55c0,.09,0,.17,0,.26a6.34,6.34,0,0,0,.37,2.26A4.13,4.13,0,0,0,75,64.31a4.66,4.66,0,0,0,1.74,1,7.83,7.83,0,0,0,2.39.34,8,8,0,0,0,2.4-.33,4.69,4.69,0,0,0,1.75-1,4.08,4.08,0,0,0,.86-1.1,4.73,4.73,0,0,0,.25-.54,6.18,6.18,0,0,0,.38-2.24c0-.08,0-.16,0-.24H81.13c0,.08,0,.17,0,.25h0c0,.31,0,.62,0,.93v0a5.81,5.81,0,0,1-.29,1.2,1.8,1.8,0,0,1-.23.44l-.06.08a1.67,1.67,0,0,1-1.36.58,1.7,1.7,0,0,1-.84-.2c-1-.55-1.12-2.06-1.12-3.06,0-.08,0-.16,0-.24Zm-30.2,2.55s0,0,0,0v-.07h-1v.16a.32.32,0,0,1-.1.23l-.31.31a.32.32,0,0,1-.23.1h-.53a3.69,3.69,0,0,1-1.38-.34A2.64,2.64,0,0,1,38.67,62a3.25,3.25,0,0,1-.42-1.68c0-.06,0-.11,0-.17H34.74v.11a5.56,5.56,0,0,0,.46,2.31,4.54,4.54,0,0,0,1.26,1.66,5.58,5.58,0,0,0,1.91,1,8.18,8.18,0,0,0,2.41.34,10.22,10.22,0,0,0,2.6-.35Z" transform="translate(-5.29 -7.66)"/><path class="cls-10" d="M104.26,82.78l.43,1.33h1.4l-1.13.82.43,1.33-1.13-.83-1.13.83.43-1.33-1.13-.82h1.4Zm-18.72,0L86,84.12h1.4l-1.13.82.43,1.33-1.13-.83-1.13.83.43-1.33-1.13-.82h1.4Zm-37.43,0,.43,1.33h1.4l-1.13.82.44,1.33-1.13-.83L47,86.26l.44-1.33-1.13-.82h1.4Zm29.95,0,.43,1.33h1.4l-1.13.82.44,1.33-1.13-.83-1.13.83.44-1.33-1.13-.82h1.4Zm-15,0,.43,1.33h1.4l-1.13.82.44,1.33-1.13-.83-1.13.83.44-1.33-1.13-.82h1.4Zm29.95,0,.43,1.33h1.4l-1.13.82.44,1.33L93,85.44l-1.13.83.44-1.33-1.13-.82h1.4Zm-48.67,0,.43,1.33h1.4l-1.13.82.44,1.33-1.13-.83-1.13.83.44-1.33-1.13-.82h1.4Zm29.95,0,.43,1.33h1.4L75,84.93l.44,1.33-1.13-.83-1.13.83.44-1.33-1.13-.82h1.4Zm-15,0,.43,1.33h1.4L60,84.93l.44,1.33-1.13-.83-1.13.83.44-1.33-1.13-.82h1.4Zm29.95,0,.43,1.33h1.4L90,84.93l.44,1.33-1.13-.83-1.13.83.44-1.33-1.13-.82h1.4Zm-37.43,0,.43,1.33h1.4l-1.13.82L53,86.26l-1.13-.83-1.13.83.43-1.33L50,84.11h1.4Zm29.95,0,.43,1.33h1.4l-1.13.82.43,1.33-1.13-.83-1.13.83.44-1.33L80,84.11h1.4Zm-15,0,.43,1.33h1.4l-1.13.82L68,86.26l-1.13-.83-1.13.83.43-1.33L65,84.11h1.4Zm29.95,0,.43,1.33h1.4l-1.13.82.44,1.33-1.13-.83-1.13.83.43-1.33-1.13-.82h1.4Zm-56.15,0L41,84.12h1.4l-1.13.82.43,1.33-1.13-.83-1.13.83.44-1.33-1.13-.82h1.4Zm-3.74,0,.43,1.33h1.4l-1.13.82L38,86.26l-1.13-.83-1.13.83.43-1.33L35,84.11h1.4Zm-3.74,0,.43,1.33H35l-1.13.82.43,1.33-1.13-.83L32,86.26l.43-1.33-1.13-.82h1.4Zm37.43,0L71,84.12h1.4l-1.13.82.43,1.33-1.13-.83-1.13.83.43-1.33-1.13-.82h1.4Zm-15,0L56,84.12h1.4l-1.13.82.43,1.33-1.13-.83-1.13.83.43-1.33-1.13-.82h1.4Zm44.92,0,.43,1.33h1.4l-1.13.82.43,1.33-1.13-.83-1.13.83.43-1.33-1.13-.82h1.4Z" transform="translate(-5.29 -7.66)"/><path class="cls-11" d="M59.07,29.41l-.34-.85s-.94-.78-1.53.11A3.25,3.25,0,0,0,57,31.31a7.22,7.22,0,0,1,.21,2.08s-.16,1.74.87,1.6c0,0,.46.18.39-.69,0,0-.11,2.52.39,3.36,0,0,1.17,2.22,1.17,2.22l.43,2.52s.5,2.19,1.07,2.51L62.8,47.2v0a13.06,13.06,0,0,0,10.72.16l.12-.19a21.19,21.19,0,0,0,1.17-5.05,1.21,1.21,0,0,0-.16-.23s.94-.39,1-.85A6.62,6.62,0,0,0,77,38.47a3.56,3.56,0,0,0,.1-.92.46.46,0,0,1,.22-.38c.31-.25.51.46.9,0a1,1,0,0,0,.18-.4A9.86,9.86,0,0,0,79.14,34a4,4,0,0,0,.64-2s.41-1.28-.43-1.48l-.64,0,0,.46-.11.16a4.38,4.38,0,0,0-.14.48,1.37,1.37,0,0,1-.16.32l-.07.16-.18.12.18-.66L78,31.44a5.41,5.41,0,0,0,.14-1.14,3.09,3.09,0,0,1-.16-.55l0-1.19.3,0-.18-1a3.31,3.31,0,0,0-.37-.25c-.07,0-.62,0-.62,0l-.94.07-.53,0-1.49,0a32.17,32.17,0,0,1-11.73-2.84s-.57,0-.57,0l-.43.18s-2.22.82-1.87,2.26c0,0,.48.41,1.37-.07a5.88,5.88,0,0,1,0,1.1s-1.12,0-1.33.44a5.45,5.45,0,0,1,0,.55Z" transform="translate(-5.29 -7.66)"/><path d="M71.17,33.93h.31l.15,0,.07,0,.07,0,.06,0,.06,0,.1-.1.09-.11,0-.06,0-.06h0l0-.09a.34.34,0,0,0,0-.09v-.09a.78.78,0,0,0,0-.08.22.22,0,0,0,0-.08.31.31,0,0,0,0-.08l0-.07,0-.07-.12-.12-.07-.05-.07,0-.16-.09-.08,0-.1,0-.1,0,0-.12a.35.35,0,0,0,0-.06s0,0,0-.08,0-.11,0-.16,0-.22,0-.33v0l0-.18c0-.06,0-.13,0-.19s0-.25,0-.38,0-.25,0-.38a3.67,3.67,0,0,0-.06-.38c0,.06.06.12.08.18l.06.19c0,.06,0,.13,0,.19s0,.13,0,.2a3.13,3.13,0,0,1,0,.39c0,.07,0,.13,0,.2s0,.13,0,.2v0c0,.12,0,.23.07.35a1.59,1.59,0,0,1,0,.18s0,.06,0,.1a.61.61,0,0,1,0,.11l-.07-.16h0l0,0,.1,0,.19.1.09.06.09.07a1.24,1.24,0,0,1,.15.17l.06.1a1,1,0,0,1,0,.11.54.54,0,0,1,0,.11.44.44,0,0,1,0,.11,1.12,1.12,0,0,1,0,.11l0,.11a.6.6,0,0,1,0,.1l0,.1h0l0,.08-.05.07-.12.12-.14.1-.08,0-.08,0-.08,0h-.25l-.16,0-.07,0Z" transform="translate(-5.29 -7.66)"/><path d="M70.69,33.38a.88.88,0,0,1,.68,0,.12.12,0,0,1,.09.13v.28l-.18-.14h0c-.17,0-.49.08-.61-.07l-.12-.14Z" transform="translate(-5.29 -7.66)"/><path class="cls-12" d="M66,36.24c-.31-.1-.82-.26-.42-.22.18,0,.3.06.51.07h.06A13.18,13.18,0,0,0,67.71,36h.07c1-.11,1.19.41,1.79.34.76-.09.76-.3,1.58,0a4.25,4.25,0,0,0,1.37.49c.68.1-.1.09-.58.08a2,2,0,0,1-.71-.18,1.15,1.15,0,0,0-.65-.24,5,5,0,0,1-1.51,0A3.17,3.17,0,0,0,68,36.22H67.9l-.33,0a8,8,0,0,1-.91.07c-.05,0-.55-.08-.62-.07" transform="translate(-5.29 -7.66)"/><path class="cls-12" d="M69.31,37.4a3.06,3.06,0,0,1-1.2-.21,2.68,2.68,0,0,1-.72-.57,1,1,0,0,0-.5-.24,3.91,3.91,0,0,1,1.18.56,2.23,2.23,0,0,0,.67.21,3.93,3.93,0,0,0,1.21,0,3,3,0,0,0,.84-.23,2.53,2.53,0,0,1,.54-.16,6.43,6.43,0,0,0-.81.37l-.2.09-.24.08a1.38,1.38,0,0,1-.53.08h-.21" transform="translate(-5.29 -7.66)"/><path class="cls-12" d="M70.66,42.67c.34-.18.69-.36,1-.52.18-.08.35-.16.54-.23l.28-.09.15,0h.15a5.12,5.12,0,0,0,.94-.09,4.45,4.45,0,0,0,.9-.27,3,3,0,0,0,.42-.21l.19-.13.18-.15a2,2,0,0,0,.16-.17,1.8,1.8,0,0,0,.14-.18,2.09,2.09,0,0,0,.12-.2c0-.07.07-.14.1-.21h0a1.75,1.75,0,0,1-.07.23,1.8,1.8,0,0,1-.1.22,1.59,1.59,0,0,1-.13.2,1.45,1.45,0,0,1-.16.19l-.18.17-.2.14-.21.13-.22.1a4.11,4.11,0,0,1-.93.26,5.37,5.37,0,0,1-1,.07h-.14l-.14,0-.27.08-.54.21c-.36.15-.71.31-1.06.48Z" transform="translate(-5.29 -7.66)"/><path d="M78.21,34a3.49,3.49,0,0,1-.16,1.28H78v.33c.29-.27.74-.78.71-1.16v-.06l0,0s0-.75,0-.75v-.09l.08,0s.49-.2.4-1l.27,0a1.17,1.17,0,0,1-.49,1.22c0,.16,0,.56-.08.75h0c.05.7-1,1.59-1,1.59l-.22.18V35.9s0-.61,0-.69c-.14-1.12.15-1.27.29-1.29h0l.1-.1Zm-.26.5a2.07,2.07,0,0,0,0-.22A.87.87,0,0,0,78,34.5Z" transform="translate(-5.29 -7.66)"/><path class="cls-12" d="M62.23,26.52a10.87,10.87,0,0,1,6.38.43S69.8,27.83,68,30a7.81,7.81,0,0,1-5.63-.38s-1.17-2.75-.1-3.12" transform="translate(-5.29 -7.66)"/><path class="cls-12" d="M77.45,28.2s-1.44-1-5.68-.87c0,0-1.34.61,0,3.14a6.64,6.64,0,0,0,5.21.78c.09-.1,1.44-2.46.48-3.05" transform="translate(-5.29 -7.66)"/><path d="M61.12,26.81l.65-.08s.12-.5,1.15-.62c0,0,3.69-.59,6.12,1a1.31,1.31,0,0,0,.77.39l1.12.14a.36.36,0,0,0,.41-.19s.37-.5,5,.12c0,0,2,.4,1.61,1.87,0,0,0,2.34-2.09,2.25a8.53,8.53,0,0,1-4.25-1.06A8.2,8.2,0,0,1,71,28.1a4.36,4.36,0,0,0-1.77-.29s-.27,2-1.37,2.5a7.37,7.37,0,0,1-5.66-.45s-.53-.24-.57-1.73c0,0-.58-.07-.58-.07Z" transform="translate(-5.29 -7.66)"/><path class="cls-13" d="M57,31.58s-4.12-2.77-4.48-5.3c0,0,.21-4.09,3.54-4.12,0,0,3.5.57,3.5.57l.85-5a9.51,9.51,0,0,1,9.24-4.25c.09,0,4.94.23,7,3.25,0,0,.78,1.6.75,1.71,0-.07.69,5.42,1.19,5.6l4.78.27s3.21,1,2,3.49c0,0-3.77,3.74-5.38,3.91a1,1,0,0,0-.58-1.18,3.67,3.67,0,0,0-.64,0l0-4-1.25.5s-6.2.75-11-1.1c0,0-4.12-1.58-4.12-1.58l-.57-.18s-4,.73-3.06,4.21c0,.09-.94-.69-1.49.21a4.26,4.26,0,0,0-.21,2.9" transform="translate(-5.29 -7.66)"/><path d="M79.24,30.39c.06-.08,0-.06,0,0ZM56.88,31.75s-4.31-2.8-4.57-5.46a2.37,2.37,0,0,1,0-.3,5.28,5.28,0,0,1,.59-2.28A3.21,3.21,0,0,1,55.51,22a4.53,4.53,0,0,1,.55,0,29.69,29.69,0,0,1,3.33.53l.82-4.79,0,0a9.7,9.7,0,0,1,9.43-4.35h0a11.85,11.85,0,0,1,4.28,1,7,7,0,0,1,3.61,4.08c0,.09.06.4.13.82.21,1.5.65,4.59.93,4.68s4,.2,4.66.22h.09l.05,0a5.44,5.44,0,0,1,.62.25c.95.45,2.44,1.51,1.48,3.51l0,0,0,0S81.7,31.72,80,32a.19.19,0,0,1-.21-.05l-.3-.3.27,0s0,0,0,0a.78.78,0,0,0-.47-.75l-.28-.1.19-.23,0-.05.17,0v0a1.17,1.17,0,0,1,.75,1.11c1.58-.46,4.67-3.46,5-3.77.77-1.65-.5-2.54-1.3-2.93a4.8,4.8,0,0,0-.58-.23h0c-.62,0-4.53-.16-4.77-.24-.52-.17-1-3.43-1.21-5-.06-.42-.1-.71-.12-.79a6.12,6.12,0,0,0-3.38-3.8,11.22,11.22,0,0,0-4-1l-.05,0h-.06a9.29,9.29,0,0,0-9,4.12L59.71,23l-.21,0A33.69,33.69,0,0,0,56,22.37a4.17,4.17,0,0,0-.5,0,2.82,2.82,0,0,0-2.3,1.53A4.86,4.86,0,0,0,52.71,26a2,2,0,0,0,0,.25c.2,2,2.92,4.11,4,4.87A4.39,4.39,0,0,1,57,28.59h0v0a1,1,0,0,1,1.38-.44c-.58-3.35,3.3-4.06,3.31-4.07h.05l.63.2a47.7,47.7,0,0,0,8.07,2.53,14.71,14.71,0,0,0,8.19-.35l.28-.11,0,4.07h.29c-.15.13-.47.44-.47.44l-.23,0,0-3.93a15.4,15.4,0,0,1-8.14.27,48.14,48.14,0,0,1-8.14-2.55l-.51-.16c-.44.09-3.65.89-2.86,3.93a.18.18,0,0,1-.1.26h0c-.1,0-.16,0-.26,0s-.79-.4-1.14.15a4.08,4.08,0,0,0-.18,2.75l.13.52Z" transform="translate(-5.29 -7.66)"/><path class="cls-8" d="M76.63,24.47h0l0,0a0,0,0,0,1,0,0h0l-.61.08c-.23,0-.48,0-.71.06l-.44,0H72.69l-.62,0-1.3-.07-1.34-.1-1.34-.12-1.3-.13-2.3-.28-2.24-.31h0l.06-.37h0c.74.13,1.48.25,2.22.37l2.28.33,1.29.17,1.34.16,1.34.14,1.3.1.62,0,.6,0,.56,0h1l.44,0c.23,0,.48,0,.71,0l.62-.07" transform="translate(-5.29 -7.66)"/><path d="M79.14,26.51l3.66-1.3s1.6-.32,2,1.76c0,.07.14,1.19.14,1.19v.13a33,33,0,0,1-2.64,2.21,6.13,6.13,0,0,1-2.33,1.27s-.13-1.24-.58-1.18l-.59,0,0-4Z" transform="translate(-5.29 -7.66)"/><path d="M61.74,24.27l-5.41-1.43a2.85,2.85,0,0,0-3,1.61,2.93,2.93,0,0,0,.22,3.82s2.78,2.81,3.28,3.17l.24.16a5.45,5.45,0,0,1-.17-2.25s.33-1.58,1.61-1l.14.14s-.4-1.81.4-2.71a4.58,4.58,0,0,1,2.65-1.54" transform="translate(-5.29 -7.66)"/><path d="M76.88,39.5l.55-.34,1.65,1.58.92.53a13.07,13.07,0,0,1-7.58,6.55l0-.08c.59-1.18,1.41-1.75,1.93-3.2a9.22,9.22,0,0,0,.4-1.87,1.48,1.48,0,0,0,0-.52l-.16-.23s1-.56,1.1-.88c0,0,.85-1.38.85-1.38Z" transform="translate(-5.29 -7.66)"/><path d="M60.4,41.89l-.35-2s-1.87-3-1.53-4.14c0,0-.69-.92-2.75,3.15a12.82,12.82,0,0,0,.87,2.3q.19.39.41.76h0l.22.37h0l.15.24h0l.07.11h0l.16.23h0l.08.11h0l.17.23h0l.08.1v0l.17.21h0l.08.09v0l.18.21h0l.08.09,0,0,.18.2h0l.08.09h0l.19.2h0l.09.09h0a13.09,13.09,0,0,0,4,2.72c-.54-.9-1.2-1.89-1.46-2.26a6.34,6.34,0,0,1-1.33-3.26" transform="translate(-5.29 -7.66)"/><path d="M62,24.39l-.32-.09a5.45,5.45,0,0,0-1.53.61,4.73,4.73,0,0,0-1.06.92h0a2.79,2.79,0,0,0-.3.51,4.44,4.44,0,0,0-.09,2.19l-.05-.06h0v0l.1.07.34.85.48-.48a5.45,5.45,0,0,0,0-.55.49.49,0,0,1,.18-.17A2.14,2.14,0,0,1,60.92,28v-1.1a2,2,0,0,1-.64.23h-.08a.91.91,0,0,1-.34,0,.47.47,0,0,1-.31-.15,1.6,1.6,0,0,1,.73-1.61,4.44,4.44,0,0,1,1.57-.83h.06Z" transform="translate(-5.29 -7.66)"/><path d="M77.37,27.29a3.31,3.31,0,0,1,.41,0,3.34,3.34,0,0,1,.37.25l.24,1.07a2.42,2.42,0,0,0-.27,0,7.37,7.37,0,0,0,.09,1.61v0a5.47,5.47,0,0,1-.14,1.14l.37.34a.19.19,0,0,0,0-.06,4.36,4.36,0,0,1,.14-.48l.09-.12.08-.5,0-4-1.25.5h-.05Z" transform="translate(-5.29 -7.66)"/><path d="M62.58,19.61a.12.12,0,0,1,.15,0,6.26,6.26,0,0,0,1.26.33c.36,0,.72.07,1.09.09a4.79,4.79,0,0,0,.68,0,1.84,1.84,0,0,1-.52-.55,1.67,1.67,0,0,0,.3.1,1.49,1.49,0,0,0,.48,0c.34-.08.67-.2,1-.3L66.57,19a1.94,1.94,0,0,0,1.06-.32l.63-.32a.7.7,0,0,1,.52,0,.53.53,0,0,1,.34.64l.31-.17,0,.21.81-.23,0,0-.17.26.38.05s0-.1,0-.15a.51.51,0,0,1,.73-.48,3.08,3.08,0,0,1,.56.34c.19.13.37.28.56.41a1.38,1.38,0,0,0,.32.16,3.13,3.13,0,0,0,.35.09l-.49.14.82.42a1.14,1.14,0,0,0,.59.12l.32-.05a1.59,1.59,0,0,1-.62.44l.17.05.16,0a7,7,0,0,0,2.6,0l.15,0s.09,0,.1,0a.12.12,0,0,1,0,.1,1.23,1.23,0,0,1-.75.58l-.1,0h0l.65.11c.09,0,.1,0,0,.12a1.41,1.41,0,0,1-.77.41,2.14,2.14,0,0,1-1.05,0h-.08l.36.21.41.24s.08.07.08.1-.05.07-.09.08a1.64,1.64,0,0,1-1.1-.06c-.16-.06-.31-.15-.47-.22l0,0c.11.12.23.24.33.37a.57.57,0,0,1,.06.17A.58.58,0,0,1,74,23a2.07,2.07,0,0,1-.66-.35l-.19-.14.11.21c0,.07.07.14.1.22s0,.15-.11.14L73.08,23a1.91,1.91,0,0,1-.58-.4.47.47,0,0,0-.1-.08c.05.11.11.22.15.34a.91.91,0,0,1,0,.19.87.87,0,0,1-.19,0,1.84,1.84,0,0,1-.62-.47c0,.1.06.19.07.27s0,.18-.14.15l-.11,0-.11-.06a.37.37,0,0,0,0,.05c0,.2,0,.21-.16.25A1.23,1.23,0,0,1,70.4,23a5.31,5.31,0,0,0-.54-.28,1.32,1.32,0,0,0-.79,0c-.27.05-.55.11-.83.14a1.68,1.68,0,0,1-.7-.07c-.16,0-.17-.09-.05-.21a.29.29,0,0,0,.07-.09l-.16.08-.16,0c-.14,0-.18,0-.13-.17l.11-.23a4.24,4.24,0,0,1-.37.23,2.44,2.44,0,0,1-.37.13.34.34,0,0,1-.13,0,.44.44,0,0,1,0-.13l.24-.36a4.56,4.56,0,0,1-.47.27,2.3,2.3,0,0,1-.46.13.17.17,0,0,1-.13,0s0-.09,0-.13l.24-.35a3.61,3.61,0,0,1-.33.16,5.88,5.88,0,0,1-.57.18.5.5,0,0,1-.2,0,.6.6,0,0,1,.1-.16c.12-.11.25-.21.37-.31v0l-.1,0a1.85,1.85,0,0,1-1.35.06l-.15-.07s-.07-.06-.07-.09,0-.07.08-.08l.41-.15c.14-.05.29-.11.43-.18h-.24a2.12,2.12,0,0,1-1.28-.4,1.71,1.71,0,0,1-.3-.31c-.06-.07,0-.1.06-.1h.67a1.32,1.32,0,0,1-.78-.81v0" transform="translate(-5.29 -7.66)"/><path class="cls-11" d="M68.8,21.94a.61.61,0,0,0,0,.43c0-.08,0-.14.06-.2s0-.11,0-.17h0a2.17,2.17,0,0,0,0-.27s-.05-.07-.08-.06-.12,0-.13.07a.67.67,0,0,0,0,.21m1.35.18,0,.36a.5.5,0,0,0,.12-.4.21.21,0,0,0,0-.24.29.29,0,0,0-.15-.06s0,.07,0,.12a1,1,0,0,0,0,.19Zm.66.42c0,.08,0,.16,0,.25a.37.37,0,0,0,.2-.37.35.35,0,0,0,0-.14,1.07,1.07,0,0,0-.13-.21.24.24,0,0,0-.07,0c0,.14,0,.26,0,.39A.48.48,0,0,0,70.81,22.55Zm-2.58-.23a.36.36,0,0,0,.05-.11c0-.13,0-.27,0-.41a.24.24,0,0,0-.08,0,1.11,1.11,0,0,0-.17.19s0,.1,0,.14a.35.35,0,0,0,.14.39Zm.35-.13c0-.11.08-.21.11-.32a1.67,1.67,0,0,0,0-.19.37.37,0,0,0-.36.37s0,0,0,0a.35.35,0,0,0,.22.41Zm1.63.57.29.19,0,0a.48.48,0,0,0,.11.1,1,1,0,0,0,.53,0s0,0,0,0h.16s0-.07,0-.1a.87.87,0,0,0-.25-.46h0c0,.08,0,.16,0,.24l0,0a2.1,2.1,0,0,1-.16.18.19.19,0,0,1-.12,0s0-.06,0-.1,0-.14,0-.2l-.11.07c-.12,0-.12.13-.08.22l-.06-.14h-.15l.07-.41-.17.27a.31.31,0,0,0,0,.1.29.29,0,0,1-.1-.23c0-.07,0-.13,0-.2l0,0-.18-.12c0,.07,0,.14,0,.22s0,.32.24.36l.07,0Zm-1.38-1.43-.1,0,.17-.3a1.31,1.31,0,0,0-.62.72h.11l.14-.06.11-.07s0,0,0,0l.38-.06a.56.56,0,0,1,.06.31,1.37,1.37,0,0,0,.06.27h0l.1-.32a.62.62,0,0,0,.14.37l.16-.36c0,.09,0,.16,0,.22a.62.62,0,0,0,0,.12.46.46,0,0,0,.14,0,.57.57,0,0,0,.11-.15.32.32,0,0,0,0-.08l0-.08c0,.16,0,.31.13.42,0-.13,0-.25,0-.37a.16.16,0,0,1,.23-.16l.16.05.31.14.12.06,0,0c0-.13-.09-.27-.15-.4a.83.83,0,0,0-.11-.17l-.13-.13-.12-.15c-.27.14-.58.19-.83.32l-.17,0,.09-.14h0l-.26.15-.09,0,.08-.13Zm.64,0c.25,0,.42-.26.65-.34l-.23.23a1.07,1.07,0,0,0,.44-.37l0,.22c.16-.12.18-.3.25-.46l.07.28a.67.67,0,0,0,0-.52c.12.08.13.27.31.3a1.32,1.32,0,0,0-.09-.17.85.85,0,0,0-.13-.14l-.14-.11v0l.43.17a1.16,1.16,0,0,0-.39-.53l.38,0c-.22-.18-.32-.48-.65-.52l.2-.12a2.07,2.07,0,0,0-.34-.08,2.11,2.11,0,0,0-.34,0l.18-.3-.79.28,0-.17a3,3,0,0,1-.27.15l-.29.1c-.13,0-.26.08-.38.14a.38.38,0,0,0-.23.33.24.24,0,0,1-.14.21,2.17,2.17,0,0,0-.31.22.19.19,0,0,0,0,.26,2.4,2.4,0,0,0,.21.24c0-.22.07-.31.27-.35l.14,0a.66.66,0,0,0,.2-.11.3.3,0,0,1,.34-.07l.21.08c.1,0,.12.07.08.16a.29.29,0,0,1-.19.16l-.08,0c0,.08,0,.15,0,.22l.12-.05-.18.33.3-.17-.13.34.41-.17v0l-.11.18v0l.44-.26,0,0Zm1.11-2c.09.08.18.15.25.24a1.91,1.91,0,0,0,.57.48l.16.07a3.82,3.82,0,0,1-.25-.64,1.78,1.78,0,0,0,.78.75,1.31,1.31,0,0,1-.33-.49,2.7,2.7,0,0,0,1,.72l-.46-.63a.81.81,0,0,0,.18.14c.25.15.49.31.75.44a.57.57,0,0,0,.66-.16,1.44,1.44,0,0,1-.74-.18l-.9-.49c-.12-.07-.23-.16-.34-.23a2,2,0,0,0,.65.13,2.63,2.63,0,0,1-.72-.46,3.68,3.68,0,0,0-.32-.24,2.12,2.12,0,0,0-.42-.22.41.41,0,0,0-.54.4c0,.12,0,.24.15.27l.05,0-.09,0Zm-4,.67a2.59,2.59,0,0,0,1.08-.56l0,0-.42.42a2.36,2.36,0,0,0,.46-.25,4.6,4.6,0,0,0,.39-.35h0l-.26.4a.35.35,0,0,0,.18-.2.61.61,0,0,1,.43-.33l.4-.13A.14.14,0,0,0,69,19a.43.43,0,0,0-.42-.59.84.84,0,0,0-.26.06l-.65.32L67.1,19l-.14,0a1.6,1.6,0,0,0,.69,0l-.1.06-.57.23-.72.25a1.42,1.42,0,0,1-.73,0,.6.6,0,0,0,.69.25c.23-.07.44-.17.67-.26l.31-.14,0,0Zm6.95,1.35a.47.47,0,0,0,.34.27l.23.08a7.78,7.78,0,0,0,.74.24,2,2,0,0,0,1.41-.19,2.49,2.49,0,0,0,.22-.15l-.35-.05c-.22,0-.44-.07-.66-.08s-.71,0-1.06,0h-.15v0l.69.25a2.23,2.23,0,0,1-.8-.18C74,21.45,73.76,21.47,73.56,21.36Zm-8.63-.59s0,0,0,0a16.61,16.61,0,0,0-2.19-.19l0,.05a1.91,1.91,0,0,0,.2.17,2.2,2.2,0,0,0,1.64.34c.22,0,.43-.1.65-.13a.55.55,0,0,0,.37-.2l-.37,0a.47.47,0,0,0-.14,0,2.35,2.35,0,0,1-.93.08Zm.83-.7a6.77,6.77,0,0,1-3-.37,1.07,1.07,0,0,0,.53.57,2.9,2.9,0,0,0,.9.27l.42,0a.76.76,0,0,1-.08-.14.12.12,0,0,0-.11-.09l-.44-.1A3.12,3.12,0,0,0,65.77,20.07Zm7.8.59a3.08,3.08,0,0,0,1.75.46l-.46,0a.15.15,0,0,0-.09,0,1.75,1.75,0,0,0-.13.16A3.43,3.43,0,0,0,76,21.25a1,1,0,0,0,.57-.45A6.75,6.75,0,0,1,73.57,20.66Zm-9.93,1a1.77,1.77,0,0,0,1,.11,3.61,3.61,0,0,0,1.09-.45l.19-.12a.57.57,0,0,0-.41.06,1.75,1.75,0,0,1-.37.16v0l.36-.25c0-.1-.12-.09-.2-.07l-.39.12Zm11.74.93v0l-.07,0-1-.6-.39-.19a.12.12,0,0,0-.18,0l.32.31,0,0a1.92,1.92,0,0,1-.34-.23c-.11-.11-.23-.1-.38-.12l.09.09c.22.16.43.32.65.47a1.74,1.74,0,0,0,1,.3ZM73.32,23v0l0-.09a2.81,2.81,0,0,0-.61-.88l-.06,0-.25,0,.4.55a1.73,1.73,0,0,1-.47-.5c-.07-.14-.21-.18-.32-.26a3.33,3.33,0,0,0,.67.86,4.29,4.29,0,0,0,.51.35A.73.73,0,0,0,73.32,23Zm-7.66-.59a2.65,2.65,0,0,0,1.52-1c-.12.05-.26.06-.35.19a1.67,1.67,0,0,1-.55.42l.48-.47-.25,0a.15.15,0,0,0-.08,0l-.28.22A2.26,2.26,0,0,0,65.65,22.36Zm1.78-1.12a7,7,0,0,0-1,1.26c.45-.08,1.37-.87,1.39-1.19a1.2,1.2,0,0,0-.16.11l-.44.43A1.1,1.1,0,0,1,67,22h0l.44-.5C67.34,21.45,67.34,21.45,67.43,21.24Zm3.93.31,0,0a2.46,2.46,0,0,0,1.19,1.37,7.05,7.05,0,0,0-.78-1.39.59.59,0,0,1,0,.15s-.07,0-.11.07l.34.54h0a2.08,2.08,0,0,1-.47-.57A1.54,1.54,0,0,0,71.36,21.55Zm-5.12-.4v0l-.19.11-.18.14L65,22l-.13.12,0,0a3.6,3.6,0,0,0,1.46-.73c0-.09,0-.09,0-.16l.31-.31c-.32.14-.52.46-.85.6Zm7.86,1.74,0,0,0,0L73.31,22l-.2-.21-.17-.14,0,0,.34.49a2.74,2.74,0,0,1-.54-.57,1.28,1.28,0,0,0-.18-.16c.07.13.16.24.23.36a.56.56,0,0,1,0,.16l0,0A3.54,3.54,0,0,0,74.1,22.89Zm-7.86-2.4-.31,0-.1,0a.41.41,0,0,1,.05-.1l.37-.36a.49.49,0,0,0-.18.06l-.25.13a2.61,2.61,0,0,1-1.24.26,1,1,0,0,0,.71.27,3.41,3.41,0,0,0,.92-.2Zm8.42.72a2.69,2.69,0,0,1-1.44-.66.59.59,0,0,0-.14-.07l.33.44a.34.34,0,0,1,0,.08l-.1,0L73,21a3.89,3.89,0,0,0,.85.34A1,1,0,0,0,74.66,21.21Zm-2.52-.12,0,0a2.48,2.48,0,0,0-.19-.24,2,2,0,0,1-.43-.58c-.06-.14-.21-.13-.31-.2l0,0,.38.56a1,1,0,0,1-.44-.5.28.28,0,0,0-.26-.17l.16.24c.11.17.21.35.33.51A1.06,1.06,0,0,0,72.15,21.09Zm-5,1.44a.6.6,0,0,0,.39-.16,3.43,3.43,0,0,0,.74-.9l0-.1a.19.19,0,0,0-.17.11,1.81,1.81,0,0,1-.47.51l.39-.54c-.11,0-.12,0-.08-.12l.1-.19a.18.18,0,0,0-.09.08,2,2,0,0,1-.48.69A1.77,1.77,0,0,0,67.17,22.53Zm3.63-1c0,.12.08.21.12.3a3.22,3.22,0,0,0,.51.82.6.6,0,0,0,.36.21,2.1,2.1,0,0,0-.21-.59,1.9,1.9,0,0,1-.38-.74.8.8,0,0,0-.09-.19h0l.06.19c0,.1,0,.12-.1.13l.3.59a1.89,1.89,0,0,1-.39-.59C70.93,21.6,70.89,21.57,70.8,21.53Zm2.27-.17a1.32,1.32,0,0,1-.53-.29l0,0-.32-.1a.8.8,0,0,0,.2.21,2.88,2.88,0,0,0,.87.49.7.7,0,0,0,.44,0c-.15-.18-.25-.38-.47-.46a2.77,2.77,0,0,1-.32-.16l-.2,0Zm-6.69-.81a1.24,1.24,0,0,1-.26.09,1,1,0,0,0-.58.36l0,.06a2,2,0,0,0,1.58-.49l-.31,0-.07,0a1.32,1.32,0,0,1-.57.2l.43-.22Zm1,.26-.29,0-.06,0-.57.53a1.63,1.63,0,0,0,1.4-.65h-.05l-.22.08a.29.29,0,0,0-.11.08,1.1,1.1,0,0,1-.41.31Zm4.12.16a2.05,2.05,0,0,0,.93.81,1.74,1.74,0,0,0,.31.06l0,0-.47-.61a.09.09,0,0,0-.06,0l-.29,0,.26.4a1,1,0,0,1-.35-.37.16.16,0,0,0,0-.07ZM68,19.77v0l-.18.08a.67.67,0,0,0-.28.17,1.05,1.05,0,0,1-.4.23l.3-.28a.79.79,0,0,0-.6.27l-.05,0-.3.26a.69.69,0,0,0,.21,0,1.12,1.12,0,0,0,.81-.39,1.18,1.18,0,0,1,.4-.31Zm3.61.37a1.31,1.31,0,0,0,1.11.85l-.47-.57,0,0-.34-.13.25.33A2.08,2.08,0,0,1,71.64,20.14Zm-3.16.41a.36.36,0,0,0-.28.18.57.57,0,0,1-.31.26.82.82,0,0,0,.28-.6c-.21,0-.22,0-.2.36a1.68,1.68,0,0,0-.5.59A1.94,1.94,0,0,0,68.49,20.55Zm3.17,1.1,0,0-.52-1c-.07,0-.08-.06-.13-.06a1.81,1.81,0,0,0,.27.66l0,0L71,20.81l0,0-.06-.08-.06-.07A1.93,1.93,0,0,0,71.66,21.65Zm-3.58-.31,0,0c.25-.11.53-.18.61-.5l-.12,0,0-.06a1.42,1.42,0,0,0,.09-.2s0-.07,0-.11a.34.34,0,0,0-.09.05,3.38,3.38,0,0,0-.21.28Zm-1.45-1.49a2.12,2.12,0,0,0-.67.55,1.21,1.21,0,0,0,1-.36l-.27.06h-.26v0Zm5.82.62a1.12,1.12,0,0,0,.87.47,3.3,3.3,0,0,0-.56-.62l.2.26,0,0Zm-1.39,1.11a1.68,1.68,0,0,0-.34-.72c-.08.11,0,.19,0,.29L70.67,21l-.12.12c0-.08,0-.14,0-.22l-.12.16A2.4,2.4,0,0,0,71.06,21.57Zm-.68,1.1,0,0a1,1,0,0,0,.2-.17.52.52,0,0,0,.1-.26c0-.25-.08-.36-.29-.4C70.4,22.13,70.54,22.4,70.38,22.67Zm-1.61,0,0,0,.33-.07a.09.09,0,0,0,0-.06c0-.13,0-.26.07-.39-.16,0-.1-.12-.18-.2l-.15.5,0,0Zm1.08,0c0-.18,0-.35,0-.53-.08.08-.15.16-.28.1l-.07.37Zm-2.31.08.08,0c.22.06.22.06.33-.14,0,0,.05-.08,0-.12a2.25,2.25,0,0,0-.08-.28Zm0-2.37a1.23,1.23,0,0,0-.44.39,1.34,1.34,0,0,0,.61-.09c-.06-.07-.1-.14-.16-.09S67.53,20.42,67.53,20.33ZM69.29,22l-.09.58.21,0a0,0,0,0,0,0,0c0-.14.06-.28.09-.42,0,0-.12.08-.13.08A1.65,1.65,0,0,1,69.29,22Zm-1,.76.38-.08c.05,0,.11-.18.09-.23l-.12-.28c0,.06,0,.12,0,.18s0,.13,0,.23l-.24-.1Zm-.46,0h.43a1.47,1.47,0,0,0,.11-.28s0-.09-.08-.16l0,.13c-.08.25-.08.25-.26.07ZM69,20.24c-.07-.05-.18-.06-.22,0l-.14.21C68.88,20.46,69,20.4,69,20.24Zm1-.36a.48.48,0,0,1,.11.62.58.58,0,0,1-.51.34c0-.11,0-.22,0-.34h0l.07.25.15-.27c0,.08,0,.15,0,.22C70.15,20.59,70.22,20.28,70.08,19.89Zm-1-.27c-.14.09-.23.22-.39.22s-.05.06-.08.07a.57.57,0,0,1-.38,0c-.08,0,0-.09,0-.14a.15.15,0,0,0,.22.09l.49-.18Zm1.17.39-.12-.12.08,0c0-.19-.07-.3-.36-.35a.38.38,0,0,1,.39.12A.32.32,0,0,1,70.29,20Zm-1.51.16c-.2,0-.3.1-.3.28A.49.49,0,0,0,68.77,20.16Z" transform="translate(-5.29 -7.66)"/><path class="cls-13" d="M65.18,30.37s2.64.11,3.33-1.48c0,0,.51-1.24.24-1.64l-.54.05.27.27-.3.08v.59L67.31,28l.35.7-.73-.11.78.7-.91-.48s.62.51.48.48-1.21-.43-1.21-.43.75.67.4.62l-1-.16.35.54-1.21-.24.62.51-1.13.08a4.7,4.7,0,0,0,1.13.19" transform="translate(-5.29 -7.66)"/><path class="cls-13" d="M74.95,31.18s-2.63-.18-3.16-1.83c0,0-.37-1.29-.06-1.66l.53.11L72,28l.29.11-.06.59.91-.17-.42.66.73,0-.85.61,1-.38s-.67.44-.53.43,1.25-.3,1.25-.3-.82.59-.47.57l1.06,0-.41.5,1.23-.11-.67.44,1.11.2a4.73,4.73,0,0,1-1.14.07" transform="translate(-5.29 -7.66)"/><path d="M72.38,26.57s6.31.14,8.23-1.24l-1.33.14.55-.59a25.84,25.84,0,0,1-7.45,1.69" transform="translate(-5.29 -7.66)"/><path class="cls-13" d="M53.33,25.89s1-2.64,2.81-2.61a5,5,0,0,1,2,.41h-1l.82.38-1.51-.31.72.89L55.8,24l.48,1.2-1.1-.27s.72.79.51.79a6.45,6.45,0,0,1-1.17-.51l1.06,1.17-1.37-.62,1,.85.5.37L54,26l.89.87-1.1-.59.34.64-.55-.55a10.63,10.63,0,0,0,1.21,1.92s-1.33-1.53-1.33-1.53.62,1.87,1.37,2.24c0,0-2.2-1.42-1.51-3.13" transform="translate(-5.29 -7.66)"/><path class="cls-14" d="M58.13,36.16a9.65,9.65,0,0,0-2.22,3.25c.08.25.17.49.26.73l.34-1.2.1,1.3s.26-1.77.34-1.92.22,1.17.22,1.17l.33-2s0,1.9,0,1.76.41-2.5.41-2.5-.07,1.58-.07,1.47.24-2.06.24-2.06" transform="translate(-5.29 -7.66)"/><path d="M60,22.94l.84-5S63.9,14.52,66,14.3c0,0-1.41.84-1.41.84l1.54-.34-2.28.91.93.17L63.43,16l.43.63L63,16.51l.82,1-1.56-.26,1.73.87L61.72,18l1.22.72-1.65-.36.5,1.87L61,19.27l.57,2-.86-.76.09,1.32-.45.24Z" transform="translate(-5.29 -7.66)"/><path class="cls-13" d="M58.88,29l-.34-.41-.46-.14-.39.09-.32.16a4.67,4.67,0,0,0-.18,3c0,.07.2,2.59.25,2.84a.85.85,0,0,0,1.05.53s.09-.66.09-.66l.14,2.9,1.51,2.81.37,2.74L62,45.7l.82,1.55a13,13,0,0,0,4.29,1.15l1.62-.83L65.05,46,67,44.46s-1-.64-2.19-1.51a30.64,30.64,0,0,1-2.52-2l1.19-.66a14.74,14.74,0,0,0-.73-1.37,13.23,13.23,0,0,1-.5-3.47c.09-.5.41-.91-.18-.91s-1.24-1.23-1.24-1.23a1.14,1.14,0,0,1-.27-1c.09-.69.14-1,.14-1.19s.32-.5-.09-1a5.51,5.51,0,0,1-.71-1.77l-.11.77-.69.62Z" transform="translate(-5.29 -7.66)"/><path d="M61,30.32c0,.15,0,.29,0,.44l0,.44c0,.29-.05.59-.08.88s0,.59,0,.87c0,.07,0,.14,0,.22s0,.14,0,.21a1.35,1.35,0,0,0,0,.2,1.17,1.17,0,0,0,0,.18l0,.18,0,0v0l0,.06,0,.12-.08.25c-.05.16-.1.33-.15.5s-.09.34-.12.51,0,.17,0,.25l0,.25,0,.25c0,.09,0,.17,0,.26a2.47,2.47,0,0,0,0,.25v.25l0,.25a2.13,2.13,0,0,0,0,.25,1.84,1.84,0,0,0,.05.25l.06.24,0,.2a.18.18,0,0,0,.06-.14.2.2,0,0,0,0-.06h0v0l0,0,.05.09.11.19.22.37.45.74.46.73.24.36.12.17a1,1,0,0,0,.13.15l-.09.11s0,0,0,0,.1,0,.09-.06h0l0,0,0,0,.09.08.18.16.17.17.08.09a.29.29,0,0,1,.07.1.3.3,0,0,0-.08-.09l-.09-.07-.2-.14-.2-.13-.1-.06-.05,0h0s0,.06.09-.06,0,0,0,0l-.09.11a1.07,1.07,0,0,1-.18-.16l-.15-.16-.28-.34c-.18-.23-.35-.46-.52-.7l-.5-.72-.24-.37-.12-.18-.06-.09,0-.05,0,0v0h0A.19.19,0,0,1,60,38a.21.21,0,0,1,.05-.15l0,.2-.08-.27a2.38,2.38,0,0,1-.06-.27,2.78,2.78,0,0,1,0-.28l0-.28v-.28c0-.09,0-.18,0-.27s0-.37.05-.55l0-.27c0-.09,0-.18.05-.27s0-.18.06-.27,0-.17.07-.26.11-.34.17-.51.06-.17.1-.25l.05-.13,0-.06,0,0,0-.08,0,.18a1.33,1.33,0,0,1,0-.25,2,2,0,0,1,0-.24c0-.08,0-.15,0-.23s0-.15,0-.22,0-.3.05-.44l.07-.44c0-.29.11-.58.17-.87s.13-.58.22-.86" transform="translate(-5.29 -7.66)"/><path d="M62.91,40.4c.22.12.45.23.67.33l.34.13.17,0h.12l.13,0,.71.55.36.27.18.12s0,0,0,0h0l.06,0,.11,0,.82.36.42.17.21.07a.84.84,0,0,0,.22,0,.88.88,0,0,1-.22,0L67,42.54l-.43-.13-.85-.29L65.51,42l-.2-.12-.38-.24-.75-.5.13,0-.15,0H64l-.21,0-.38-.12c-.25-.09-.49-.18-.73-.29Z" transform="translate(-5.29 -7.66)"/><path d="M60.42,39.3c.28.36.54.72.79,1.09.13.19.25.38.37.57l.09.15.08.16a1.41,1.41,0,0,1,.07.16,1,1,0,0,1,.06.19v0s0,0,0,0l0,0,.06.07.13.15.27.3.54.6L64,43.93h0a11.3,11.3,0,0,0,1.13.74,4.8,4.8,0,0,0,.6.3,1.86,1.86,0,0,0,.32.1l.17,0a.45.45,0,0,0,.17,0,.48.48,0,0,1-.17,0H66a1.92,1.92,0,0,1-.33-.08,4.86,4.86,0,0,1-.62-.27A11.49,11.49,0,0,1,63.92,44h0l-1.14-1.13-.57-.57L61.92,42l-.14-.14-.07-.08,0,0-.06-.09v0a.86.86,0,0,0,0-.13l-.07-.14-.08-.14-.09-.14c-.12-.18-.25-.36-.38-.54-.27-.35-.55-.7-.83-1Z" transform="translate(-5.29 -7.66)"/><path d="M61.19,41.81v.05a1.46,1.46,0,0,0,.07.16l.06.12.08.14c.06.1.13.2.22.32s.18.24.3.36l.17.19.19.19c.13.13.27.25.41.38s.3.25.45.38l.47.36c.15.12.31.22.46.33l.44.3.4.26.35.21.27.16.23.14-.24-.12-.28-.14-.36-.19-.42-.23L64,44.89c-.16-.1-.33-.19-.49-.3L63,44.26c-.16-.12-.33-.23-.48-.35s-.31-.24-.45-.37l-.21-.18-.19-.19c-.13-.12-.23-.25-.34-.36s-.19-.23-.26-.33l-.1-.15-.08-.13a2,2,0,0,1-.1-.2l0-.07v0Z" transform="translate(-5.29 -7.66)"/><path d="M58.67,30.48a.81.81,0,0,1,.08.17,1.21,1.21,0,0,1,0,.18,1.38,1.38,0,0,1,0,.19.79.79,0,0,1,0,.1s0,.06,0,.09a1.45,1.45,0,0,1,0,.19c0,.06,0,.12,0,.18l0,.09,0,.09-.08.17,0,0h0l0,0,0,.06a.79.79,0,0,0,0,.12.57.57,0,0,0,0,.25l0,.06,0,.06,0,.05,0,0,0,0,.05,0,.06,0,.06,0-.08,0,.07-.13.07-.13.12-.26a4.58,4.58,0,0,0,.2-.55l0-.14s0-.09,0-.14a2.77,2.77,0,0,0,0-.28,1.13,1.13,0,0,0,0-.14,1,1,0,0,0,0-.14s0-.09,0-.14l0-.13v0s0,0,0,0l0,0,0-.09-.1-.17L59,30.18l-.06-.07-.07-.06-.07,0-.07,0-.08,0h-.15l-.08,0-.07,0a.34.34,0,0,0-.07.05l-.07.06,0,0-.08.14-.07.15c0,.1-.09.2-.13.31l-.05.16,0,.16c0,.05,0,.11,0,.16a1.57,1.57,0,0,0,0,.16c0,.05,0,.11,0,.16l0,.16v.16c0,.05,0,.11,0,.16a1.17,1.17,0,0,0,0,.16l0,.16,0,.16v.08l0,.09.13.49-.31-.38a.25.25,0,0,1,0-.08v-.09l0-.11,0-.23-.08-.45c0-.15,0-.3-.07-.45s0-.3-.06-.45h0c0,.15.08.29.13.44s.08.29.12.44l.12.44.06.22,0,.11v.08s0,0,0,0l-.19.11,0-.08v-.09l0-.18,0-.18a1.38,1.38,0,0,1,0-.18c0-.06,0-.12,0-.18v-.18l0-.18c0-.06,0-.12,0-.18a1.79,1.79,0,0,1,0-.18c0-.06,0-.12,0-.17s0-.12.06-.17,0-.11.06-.17.09-.22.15-.33l.08-.16L58,30v0h0l.09-.07.09-.07.11-.06.12,0h.25l.12,0,.11.06.09.07.08.08.07.09.06.09.11.19,0,.1,0,.05a.36.36,0,0,1,0,.08v0l0,.16a1.2,1.2,0,0,1,0,.16.9.9,0,0,1,0,.15,1.34,1.34,0,0,1,0,.15,2.53,2.53,0,0,1-.05.3s0,.1,0,.15l0,.14a4.59,4.59,0,0,1-.22.56l-.13.27-.07.13-.07.13,0,.06,0,0-.07,0-.06,0-.06,0-.05-.05,0-.06,0-.07,0-.07,0-.08a.65.65,0,0,1,0-.3,1,1,0,0,1,.06-.14l0-.06,0,0v0l0,0,0,0,.08-.16,0-.08,0-.09c0-.06,0-.11.05-.17a1.29,1.29,0,0,0,0-.18.87.87,0,0,0,0-.09s0-.06,0-.09a1.28,1.28,0,0,0,0-.18,1,1,0,0,0,0-.18.74.74,0,0,0-.07-.17Z" transform="translate(-5.29 -7.66)"/><path class="cls-14" d="M76.35,40.52l1-.94,1.92,1.65.6.27q-.23.44-.49.86L79.17,42l-.27,1-.74-1.61-.51,1.08-.55-1.18-.82,1.18-.05-.75-.84.53Z" transform="translate(-5.29 -7.66)"/><path class="cls-14" d="M63.16,30.34a6.6,6.6,0,0,0,4.77.12,2.61,2.61,0,0,0,1-1.17s0,1.39-.46,1.82c0,0-1.46.24-1.75,1,0,0-3.05-.48-3.57-1.78" transform="translate(-5.29 -7.66)"/><path class="cls-14" d="M71.72,31.05l.09,1a1.24,1.24,0,0,1,.69.6,4.54,4.54,0,0,1,.41.57c0-.08,0-.16,0-.23s-.11-1-.8-1.07c0,0-.39-1.23-.39-1.23Z" transform="translate(-5.29 -7.66)"/><path class="cls-14" d="M74.37,31.72s2.7.57,3.16-.57c0,0,0,1.17,0,1.17s-2.42.41-3.2-.59" transform="translate(-5.29 -7.66)"/><path d="M68.72,33l0,0a.12.12,0,0,1,.09.13v.28l-.18-.14h0c-.16,0-.45.08-.59,0h0l-.09.08,0,0,0,0h0v0h0s0,0-.06,0h-.11s0,0,0,0l-.18-.05a.7.7,0,0,1-.33-.25.68.68,0,0,1-.12-.39c0-.07,0-.13,0-.2a1.23,1.23,0,0,1,0-.2,1,1,0,0,1,.19-.36,1,1,0,0,1,.32-.25,1.45,1.45,0,0,1,.38-.12,1.71,1.71,0,0,1,.4,0h0v0h0a2.74,2.74,0,0,0-.37.12l-.17.08-.15.09a.82.82,0,0,0-.22.22.73.73,0,0,0-.07.13.81.81,0,0,0,0,.14c0,.05,0,.1,0,.16v.17a.5.5,0,0,0,.07.23.47.47,0,0,0,.19.15l.14.05h0l0,0,0,0,.12-.08h0a1.46,1.46,0,0,1,.24-.12.76.76,0,0,1,.3-.06.43.43,0,0,1,.17,0l.08.05" transform="translate(-5.29 -7.66)"/><path d="M78.58,30.53l-.28-.07a8.18,8.18,0,0,1-.13.95l.13.17c0-.16.12-.38.12-.39v0l.11-.15Zm-19.73-2,.27.65.33-.33h0l.23-.41-.22-.11h0c.09-.19.15-.23.19-.19a2.77,2.77,0,0,1,1.13-.3c0-.21.08-.66.08-.8a1.84,1.84,0,0,1-.81.21,1.09,1.09,0,0,1-.43-.08.47.47,0,0,1-.21-.16.14.14,0,0,1,0,0c-.36-1.55,2-2.41,2-2.41l.47-.2h0s.53.44.43.24l-.18-.36.36.18a32,32,0,0,0,11.67,2.82l1.48,0,.52,0,.94-.07h0s.57,0,.66.05a3.21,3.21,0,0,1,.41.27l0,0,.23,1.27-.33,0,0,1a2.93,2.93,0,0,0,.14.49.46.46,0,0,1,0,.21h1l.5.31a1.3,1.3,0,0,1,.17.84A2.54,2.54,0,0,1,80,32a.41.41,0,0,1,0,.11h0a4.06,4.06,0,0,1-.63,2,9.31,9.31,0,0,1-.7,2.62c0,.06,0,0,0,.07h0v0c-.16.62-.46.7-.71.63h0a.74.74,0,0,1-.26-.13l-.08-.08s-.16.14-.21.21v.06h0a5.44,5.44,0,0,1-.74,2.57,5.37,5.37,0,0,1-.74,1h0c-.08.4-.66.73-1,.87a.57.57,0,0,1,.08.13v0a18.18,18.18,0,0,1-.88,4.23c-.08.27-.15.49-.2.63a1,1,0,0,1-.12.25h0l-.06.1h0l-.06.1,0,0,0,0a13.06,13.06,0,0,1-2.56.81,13.16,13.16,0,0,1-8.28-1l-.09,0v-.08L61.46,45c-.61-.42-1.1-2.58-1.1-2.58h0l-.43-2.49c-.11-.21-1.11-2.14-1.13-2.17h0v0a6.56,6.56,0,0,1-.42-2.63l-.14,0h-.11c-.69.08-.92-.53-1-1.06a3.49,3.49,0,0,1,0-.48.43.43,0,0,1,0-.12V33.4h0l0,0,0,0a7.1,7.1,0,0,0-.21-2,3.6,3.6,0,0,1-.08-2.1l-.49.49.75-1.12h0a.86.86,0,0,1,.25-.28c.66-.53,1.47.15,1.47.15l0,0Zm.09.95-.33-.81c-.13-.09-.68-.46-1.12-.1a1.65,1.65,0,0,1-.19.21,3.14,3.14,0,0,0-.14,2.5h0a7.1,7.1,0,0,1,.2,2.16l0,.11s0,0,0,0a3.34,3.34,0,0,0,0,.44,1.24,1.24,0,0,0,.25.67,1.19,1.19,0,0,1,.5.16h0c.05,0,.13,0,.16-.2s0-.36,0-.36h.27a1.58,1.58,0,0,1,0,.39A7.5,7.5,0,0,0,59,37.59h0c.16.26,1.17,2.22,1.17,2.22v0l.44,2.53c0,.11.5,2.14,1,2.42l0,0,1.26,2.32a13,13,0,0,0,8,.92,12.72,12.72,0,0,0,2.46-.78l0-.06h0l.05-.09.05-.1.09,0s-.09-.06-.06-.14.12-.37.2-.62a18.27,18.27,0,0,0,.87-4.12,1.5,1.5,0,0,0-.13-.17l-.12-.14.17-.07s.87-.36.95-.75l0-.11h.11a9.6,9.6,0,0,0,.62-1A5.16,5.16,0,0,0,77,37.5h0v-.14l0,0,0,0c.1-.14.32-.44.58-.28l.29.18c.12,0,.25-.07.35-.44h0l0-.13A8.68,8.68,0,0,0,79,34.08V34l0,0a3.82,3.82,0,0,0,.62-1.91h.15l.08-.06c-.05,0-.2,0-.18-.1a2.33,2.33,0,0,0,.05-.33.78.78,0,0,0-.31-.81h-.6l0,.37-.12.17a3.94,3.94,0,0,0-.12.42,1.23,1.23,0,0,1-.18.38l-.08.19-.52.32.26-.93-.16-.2v-.06a7.26,7.26,0,0,0,.15-1,3.16,3.16,0,0,1-.18-.59v0l0-1.35.27,0L78,27.66a2.89,2.89,0,0,0-.28-.2h0s-.5,0-.57,0l-.93.07-.53,0-1.5,0a32.22,32.22,0,0,1-11.79-2.85h0a2.32,2.32,0,0,1-.5,0l-.4.17s-2.08.77-1.79,2.08l.08,0a.82.82,0,0,0,.32.06,1.64,1.64,0,0,0,.78-.23l.05,0,.06,0c.17.06.09,1.23.09,1.24v.12h-.12s-1,0-1.21.36c0,.23,0,.5,0,.5v0l-.66.66Z" transform="translate(-5.29 -7.66)"/><path class="cls-5" d="M67.95,31.7c.14,0-.2.07-.27.1a6.88,6.88,0,0,0-2.3,2.66l-.23.52a6.75,6.75,0,0,1,.34-1.07v0a5,5,0,0,1,1.2-1.53l.2-.18a1.77,1.77,0,0,1,1-.48" transform="translate(-5.29 -7.66)"/><path class="cls-8" d="M72,32.64a5.51,5.51,0,0,1,1,1.45l.22.52a6.62,6.62,0,0,0-.34-1.06v0a4.07,4.07,0,0,0-.66-1l-.16.1" transform="translate(-5.29 -7.66)"/><path class="cls-3" d="M97.67,58.64a1.45,1.45,0,0,0,.35,1A1.2,1.2,0,0,0,99,60a1.13,1.13,0,0,0,.93-.4,1.7,1.7,0,0,0,.32-1.09,1.49,1.49,0,0,0-.33-1,1.13,1.13,0,0,0-.93-.39,1.16,1.16,0,0,0-.94.41,1.6,1.6,0,0,0-.35,1.06m-2.48,7V63.18c.53.14.95.23,1.26.29a8.38,8.38,0,0,0,1.34.08,3.39,3.39,0,0,0,1.18-.2,1.92,1.92,0,0,0,.89-.68,2.1,2.1,0,0,0,.35-1.25,3.62,3.62,0,0,1-2.34.64,4,4,0,0,1-1.78-.4,3.21,3.21,0,0,1-1.34-1.18,3.3,3.3,0,0,1-.51-1.84,3.35,3.35,0,0,1,.65-2.1,3.82,3.82,0,0,1,1.7-1.26,6.12,6.12,0,0,1,2.25-.41,5.44,5.44,0,0,1,2.08.39,4.62,4.62,0,0,1,1.63,1.1,4.91,4.91,0,0,1,1,1.69,6.05,6.05,0,0,1,.36,2.14,6.46,6.46,0,0,1-.72,3.15,4.68,4.68,0,0,1-2,2,6.18,6.18,0,0,1-2.9.66A15,15,0,0,1,95.19,65.65ZM85.06,55h8.48V58l-3.75,7.76H85.32L89.75,58H85.06Z" transform="translate(-5.29 -7.66)"/><path class="cls-3" d="M101.74,81.78v-3h2.55v.73h-1.45v.43h1.38v.73h-1.38V81h1.48v.73Zm-.25-.87v.8a2.84,2.84,0,0,1-.81.12,2.32,2.32,0,0,1-.69-.1,1.62,1.62,0,0,1-.56-.3,1.37,1.37,0,0,1-.37-.51,1.7,1.7,0,0,1-.13-.7,1.5,1.5,0,0,1,.14-.66,1.35,1.35,0,0,1,.38-.48,1.73,1.73,0,0,1,.56-.29,2.34,2.34,0,0,1,.68-.1l.37,0,.43.07v.8a1.85,1.85,0,0,0-.56-.11,1,1,0,0,0-.43.09.67.67,0,0,0-.3.26.75.75,0,0,0-.11.41.85.85,0,0,0,.1.43.66.66,0,0,0,.29.27.94.94,0,0,0,.42.09A1.83,1.83,0,0,0,101.49,80.9Zm-6.06.87v-3h1.69l.54,2.13h0V78.75h1v3H97l-.57-2.2h0v2.2Zm-2.91,0v-3h2.55v.73H93.63v.43H95v.73H93.63V81H95.1v.73Zm-.21-3v.89h-1v2.13H90.18V79.64h-1v-.89Zm-3.46.05v.78a2.57,2.57,0,0,0-.87-.15,1.44,1.44,0,0,0-.35,0,.16.16,0,0,0-.14.16c0,.08.08.14.23.18l.56.14a1.17,1.17,0,0,1,.54.28.77.77,0,0,1,.21.59.86.86,0,0,1-.21.61,1.12,1.12,0,0,1-.53.32,2.59,2.59,0,0,1-.69.09l-.41,0-.39,0-.41-.08V80.9a2.55,2.55,0,0,0,.5.15,2.82,2.82,0,0,0,.52.05,1.1,1.1,0,0,0,.36-.05c.09,0,.14-.09.14-.16s-.08-.15-.24-.19l-.56-.14a1.18,1.18,0,0,1-.53-.28.79.79,0,0,1-.21-.6.8.8,0,0,1,.22-.6,1.17,1.17,0,0,1,.56-.3,3.3,3.3,0,0,1,.73-.08A4.72,4.72,0,0,1,88.85,78.8Zm-3.94-.05H86v3H84.91Zm-2.72,1.48-.93-1.48h1.3l.44.89.47-.89h1.19l-1,1.48,1.06,1.55H83.42l-.55-1-.52,1H81.13Zm-3.73,1.55v-3H81v.73H79.57v.43h1.38v.73H79.57V81H81v.73Zm-2.35-1.51q0,.84.45.84a.36.36,0,0,0,.31-.13.61.61,0,0,0,.13-.3,2.87,2.87,0,0,0,0-.41,1.86,1.86,0,0,0-.09-.59.36.36,0,0,0-.37-.25Q76.11,79.42,76.11,80.26Zm2.1,0a1.91,1.91,0,0,1-.11.68,1.26,1.26,0,0,1-.32.49,1.39,1.39,0,0,1-.52.3,2.26,2.26,0,0,1-.69.1,2.21,2.21,0,0,1-.69-.1,1.36,1.36,0,0,1-.52-.3,1.27,1.27,0,0,1-.32-.49,1.93,1.93,0,0,1-.11-.68,1.9,1.9,0,0,1,.11-.67,1.28,1.28,0,0,1,.32-.49,1.34,1.34,0,0,1,.51-.3,2.37,2.37,0,0,1,1.38,0,1.39,1.39,0,0,1,.52.3,1.27,1.27,0,0,1,.32.49A1.87,1.87,0,0,1,78.21,80.26Zm-3.44.64v.8a2.84,2.84,0,0,1-.81.12,2.32,2.32,0,0,1-.69-.1,1.62,1.62,0,0,1-.56-.3,1.42,1.42,0,0,1-.38-.51,1.73,1.73,0,0,1-.13-.7,1.5,1.5,0,0,1,.14-.66,1.36,1.36,0,0,1,.38-.48,1.73,1.73,0,0,1,.56-.29,2.34,2.34,0,0,1,.68-.1l.37,0,.43.07v.8a1.85,1.85,0,0,0-.57-.11,1,1,0,0,0-.43.09.67.67,0,0,0-.3.26.75.75,0,0,0-.11.41.86.86,0,0,0,.1.43.67.67,0,0,0,.29.27.93.93,0,0,0,.42.09A1.83,1.83,0,0,0,74.77,80.9Zm-4.83-.64c0,.56.15.84.45.84A.36.36,0,0,0,70.7,81a.63.63,0,0,0,.13-.3,3.2,3.2,0,0,0,0-.41,1.86,1.86,0,0,0-.09-.59.35.35,0,0,0-.37-.25C70.09,79.42,69.94,79.7,69.94,80.26Zm2.1,0a1.93,1.93,0,0,1-.11.68,1.27,1.27,0,0,1-.33.49,1.37,1.37,0,0,1-.52.3,2.27,2.27,0,0,1-.69.1,2.21,2.21,0,0,1-.69-.1,1.38,1.38,0,0,1-.52-.3,1.27,1.27,0,0,1-.32-.49,2,2,0,0,1-.11-.68,1.92,1.92,0,0,1,.11-.67,1.28,1.28,0,0,1,.32-.49,1.36,1.36,0,0,1,.51-.3,2.38,2.38,0,0,1,1.38,0,1.4,1.4,0,0,1,.52.3,1.3,1.3,0,0,1,.33.49A1.89,1.89,0,0,1,72,80.26Zm-3.4-1.51v.89h-1v2.13H66.51V79.64h-1v-.89Zm-5.34,1.51q0,.84.45.84a.36.36,0,0,0,.31-.13.61.61,0,0,0,.13-.3,2.85,2.85,0,0,0,0-.41,1.86,1.86,0,0,0-.09-.59.36.36,0,0,0-.37-.25Q63.29,79.42,63.29,80.26Zm2.1,0a1.91,1.91,0,0,1-.11.68,1.26,1.26,0,0,1-.32.49,1.38,1.38,0,0,1-.52.3,2.26,2.26,0,0,1-.69.1,2.21,2.21,0,0,1-.69-.1,1.37,1.37,0,0,1-.52-.3,1.27,1.27,0,0,1-.32-.49,1.93,1.93,0,0,1-.11-.68,1.9,1.9,0,0,1,.11-.67,1.28,1.28,0,0,1,.32-.49,1.34,1.34,0,0,1,.51-.3,2.37,2.37,0,0,1,1.38,0,1.39,1.39,0,0,1,.52.3,1.27,1.27,0,0,1,.32.49A1.87,1.87,0,0,1,65.39,80.26Zm-7.68,1.51v-3h1.67l.38,1.66h0l.38-1.66h1.67v3h-1l0-2.38h0l-.58,2.38h-.94L58.7,79.4h0v2.38Zm-2.07-3v.78a2.57,2.57,0,0,0-.87-.15,1.44,1.44,0,0,0-.35,0,.16.16,0,0,0-.14.16c0,.08.08.14.23.18l.56.14a1.17,1.17,0,0,1,.54.28.77.77,0,0,1,.21.59.86.86,0,0,1-.21.61,1.12,1.12,0,0,1-.53.32,2.59,2.59,0,0,1-.69.09l-.41,0-.39,0-.41-.08V80.9a2.55,2.55,0,0,0,.5.15,2.82,2.82,0,0,0,.52.05,1.1,1.1,0,0,0,.36-.05c.09,0,.14-.09.14-.16s-.08-.15-.24-.19l-.56-.14a1.18,1.18,0,0,1-.53-.28.79.79,0,0,1-.21-.6.8.8,0,0,1,.22-.6,1.17,1.17,0,0,1,.56-.3,3.31,3.31,0,0,1,.73-.08A4.72,4.72,0,0,1,55.64,78.8ZM51,79.42v.65h.29a.74.74,0,0,0,.34-.06c.08,0,.12-.13.12-.27a.25.25,0,0,0-.12-.25.69.69,0,0,0-.32-.06Zm-1.08,2.35v-3h1.83a2,2,0,0,1,.61.08.76.76,0,0,1,.39.26.75.75,0,0,1,.14.46.79.79,0,0,1-.71.8h0a.73.73,0,0,1,.5.32,1.12,1.12,0,0,1,.09.24c0,.09,0,.2.07.34l.06.3a1.25,1.25,0,0,0,.06.2H51.8s0-.15,0-.3,0-.27,0-.36a.67.67,0,0,0-.06-.21.23.23,0,0,0-.12-.13.51.51,0,0,0-.2,0h-.25v1ZM48,79.4l-.33,1h.65l-.32-1Zm-1.79,2.38,1-3h1.56l1.05,3H48.65l-.19-.66h-1l-.18.66Zm-2.65,0v-3h2.55v.73H44.64v.43H46v.73H44.64V81h1.48v.73Zm-.11-3-1.11,2.1v.93H41.19v-.93l-1.09-2.1h1.23L41.79,80h0l.46-1.27Zm-6.75,1.51c0,.2,0,.36,0,.48a.64.64,0,0,0,.1.29.28.28,0,0,0,.25.12.27.27,0,0,0,.24-.12.66.66,0,0,0,.09-.29c0-.12,0-.28,0-.48s0-.37,0-.49a.62.62,0,0,0-.09-.29.27.27,0,0,0-.24-.11.29.29,0,0,0-.25.11.6.6,0,0,0-.1.29C36.69,79.89,36.68,80.05,36.68,80.26Zm-1.11,0a1.86,1.86,0,0,1,.17-.81,1.26,1.26,0,0,1,.5-.56,1.52,1.52,0,0,1,.8-.2,1.59,1.59,0,0,1,.61.11,1.29,1.29,0,0,1,.46.32,1.36,1.36,0,0,1,.29.49,1.94,1.94,0,0,1,.1.64,1.9,1.9,0,0,1-.17.83,1.24,1.24,0,0,1-.5.55,1.71,1.71,0,0,1-1.59,0,1.24,1.24,0,0,1-.5-.55A1.88,1.88,0,0,1,35.58,80.26ZM34.19,81h1.21v.73H33.07v-.85a9.67,9.67,0,0,0,.86-.5,1.64,1.64,0,0,0,.3-.26.45.45,0,0,0,.11-.3.35.35,0,0,0-.16-.32.69.69,0,0,0-.39-.1,1.63,1.63,0,0,0-.66.13v-.79a5.25,5.25,0,0,1,.93-.1,2.26,2.26,0,0,1,.66.09,1,1,0,0,1,.49.31.88.88,0,0,1,.19.59,1,1,0,0,1-.11.45,1.32,1.32,0,0,1-.28.37,2.55,2.55,0,0,1-.37.28l-.45.25Z" transform="translate(-5.29 -7.66)"/></svg>